<svg width="70" height="68" viewBox="0 0 70 68" fill="none" xmlns="http://www.w3.org/2000/svg">
<path fill-rule="evenodd" clip-rule="evenodd" d="M35.7438 0.0152629C42.29 -0.289405 48.0297 4.0228 53.5573 7.96307C59.4551 12.1672 66.617 15.9595 68.631 23.4585C70.6364 30.9258 66.5737 38.5074 63.663 45.5909C61.0807 51.8753 57.912 57.8401 52.8648 61.8269C47.8686 65.7735 41.8115 68.4808 35.7438 67.6446C29.9994 66.853 26.5601 60.5017 21.4321 57.4954C14.9446 53.6921 5.5294 54.8547 1.84088 47.7689C-1.85265 40.6735 0.622379 31.1827 3.91445 23.8435C6.94068 17.097 13.3704 13.7678 18.9743 9.57261C24.3195 5.571 29.3203 0.314222 35.7438 0.0152629Z" fill="#608AF5"/>
<path d="M34.5834 16.6785C30.461 16.6787 26.4731 18.1706 23.3333 20.8873C20.1936 23.604 18.1068 27.3682 17.4465 31.5063C16.7861 35.6445 17.5952 39.8866 19.729 43.4736C21.8629 47.0606 25.1821 49.7584 29.093 51.0844C29.961 51.2389 30.2865 50.7093 30.2865 50.2457C30.2865 49.8264 30.2648 48.4361 30.2648 46.9575C25.9028 47.774 24.7744 45.8761 24.4271 44.883C24.0419 43.9171 23.4311 43.0612 22.6476 42.3891C22.04 42.0581 21.1719 41.2415 22.6259 41.2195C23.1811 41.2808 23.7136 41.4772 24.1782 41.7922C24.6429 42.1072 25.026 42.5315 25.2952 43.0291C25.5326 43.4629 25.8519 43.8448 26.2348 44.1529C26.6176 44.461 27.0564 44.6892 27.5262 44.8245C27.9959 44.9598 28.4872 44.9995 28.9721 44.9414C29.4569 44.8833 29.9257 44.7284 30.3516 44.4857C30.4267 43.5881 30.8201 42.7489 31.4584 42.1243C27.5955 41.683 23.5591 40.1601 23.5591 33.407C23.5347 31.6523 24.1714 29.9546 25.3386 28.6621C24.8078 27.1371 24.8699 25.4635 25.5122 23.9835C25.5122 23.9835 26.9661 23.52 30.2865 25.7931C33.1273 24.9986 36.1263 24.9986 38.9671 25.7931C42.2873 23.4979 43.7414 23.9835 43.7414 23.9835C44.3837 25.4635 44.4458 27.1371 43.915 28.6621C45.0857 29.9524 45.723 31.6516 45.6945 33.407C45.6945 40.1822 41.6363 41.683 37.7735 42.1243C38.1878 42.5514 38.5069 43.0641 38.7091 43.6277C38.9113 44.1913 38.9919 44.7925 38.9454 45.3906C38.9454 47.752 38.9237 49.6499 38.9237 50.2458C38.9237 50.7093 39.2492 51.261 40.1172 51.0844C44.0212 49.7477 47.3309 47.0436 49.4556 43.4547C51.5804 39.8659 52.3818 35.6259 51.7169 31.4918C51.0519 27.3576 48.9639 23.5983 45.8255 20.8849C42.6871 18.1715 38.7027 16.6807 34.5834 16.6785Z" fill="white"/>
</svg>
