<svg width="70" height="68" viewBox="0 0 70 68" fill="none" xmlns="http://www.w3.org/2000/svg">
<path fill-rule="evenodd" clip-rule="evenodd" d="M35.7438 0.0152629C42.29 -0.289405 48.0297 4.0228 53.5573 7.96307C59.4551 12.1672 66.617 15.9595 68.631 23.4585C70.6364 30.9258 66.5737 38.5074 63.663 45.5909C61.0807 51.8753 57.912 57.8401 52.8648 61.8269C47.8686 65.7735 41.8115 68.4808 35.7438 67.6446C29.9994 66.853 26.5601 60.5017 21.4321 57.4954C14.9446 53.6921 5.5294 54.8547 1.84088 47.7689C-1.85265 40.6735 0.622379 31.1827 3.91445 23.8435C6.94068 17.097 13.3704 13.7678 18.9743 9.57261C24.3195 5.571 29.3203 0.314222 35.7438 0.0152629Z" fill="#608AF5"/>
<path d="M43.8542 22.3518C43.4421 22.3518 43.0393 22.476 42.6967 22.7088C42.3541 22.9416 42.0871 23.2725 41.9294 23.6597C41.7717 24.0468 41.7305 24.4728 41.8109 24.8838C41.8913 25.2947 42.0897 25.6722 42.381 25.9685C42.6724 26.2648 43.0436 26.4666 43.4477 26.5484C43.8519 26.6301 44.2708 26.5882 44.6514 26.4278C45.0321 26.2675 45.3575 25.9959 45.5864 25.6475C45.8153 25.2991 45.9375 24.8895 45.9375 24.4704C45.9375 23.9085 45.718 23.3697 45.3273 22.9723C44.9366 22.575 44.4067 22.3518 43.8542 22.3518ZM51.8403 26.6244C51.8065 25.1595 51.5367 23.7102 51.0417 22.3341C50.6002 21.1568 49.9132 20.0906 49.0278 19.2091C48.1681 18.3042 47.1173 17.6099 45.9549 17.1788C44.6053 16.66 43.1786 16.3794 41.7361 16.349C39.8958 16.243 39.3056 16.243 34.5833 16.243C29.8611 16.243 29.2708 16.243 27.4306 16.349C25.9881 16.3794 24.5614 16.66 23.2118 17.1788C22.0515 17.6142 21.0016 18.3079 20.1389 19.2091C19.249 20.0834 18.5663 21.152 18.1424 22.3341C17.6322 23.7066 17.3563 25.1575 17.3264 26.6244C17.2222 28.4959 17.2222 29.0961 17.2222 33.8984C17.2222 38.7007 17.2222 39.3009 17.3264 41.1724C17.3563 42.6393 17.6322 44.0902 18.1424 45.4627C18.5663 46.6448 19.249 47.7134 20.1389 48.5877C21.0016 49.4889 22.0515 50.1826 23.2118 50.618C24.5614 51.1368 25.9881 51.4174 27.4306 51.4478C29.2708 51.5538 29.8611 51.5538 34.5833 51.5538C39.3056 51.5538 39.8958 51.5538 41.7361 51.4478C43.1786 51.4174 44.6053 51.1368 45.9549 50.618C47.1173 50.1869 48.1681 49.4926 49.0278 48.5877C49.9171 47.7095 50.6048 46.6424 51.0417 45.4627C51.5367 44.0866 51.8065 42.6373 51.8403 41.1724C51.8403 39.3009 51.9445 38.7007 51.9445 33.8984C51.9445 29.0961 51.9445 28.4959 51.8403 26.6244ZM48.7153 40.9605C48.7026 42.0813 48.503 43.1917 48.125 44.2444C47.8478 45.0128 47.4026 45.7071 46.8229 46.2748C46.2598 46.8583 45.5785 47.3102 44.8264 47.599C43.7912 47.9834 42.6993 48.1864 41.5972 48.1992C39.8611 48.2875 39.2188 48.3052 34.6528 48.3052C30.0868 48.3052 29.4445 48.3052 27.7083 48.1992C26.5641 48.221 25.4247 48.0419 24.3403 47.6696C23.6212 47.3661 22.9711 46.9153 22.4306 46.3454C21.8543 45.7783 21.4147 45.0834 21.1458 44.3151C20.722 43.2472 20.4869 42.1116 20.4514 40.9605C20.4514 39.195 20.3472 38.5418 20.3472 33.8984C20.3472 29.255 20.3472 28.6018 20.4514 26.8363C20.4592 25.6905 20.6649 24.5551 21.059 23.4817C21.3647 22.7365 21.8338 22.0722 22.4306 21.5396C22.958 20.9326 23.6099 20.4505 24.3403 20.1272C25.3985 19.7389 26.5139 19.5359 27.6389 19.5269C29.375 19.5269 30.0174 19.421 34.5833 19.421C39.1493 19.421 39.7917 19.421 41.5278 19.5269C42.6298 19.5398 43.7217 19.7428 44.757 20.1272C45.5459 20.425 46.254 20.9091 46.8229 21.5396C47.3918 22.082 47.8364 22.745 48.125 23.4817C48.5109 24.5568 48.7106 25.6918 48.7153 26.8363C48.8021 28.6018 48.8195 29.255 48.8195 33.8984C48.8195 38.5418 48.8021 39.195 48.7153 40.9605ZM34.5833 24.8412C32.8226 24.8447 31.1024 25.3788 29.64 26.3762C28.1777 27.3735 27.0389 28.7893 26.3674 30.4446C25.696 32.0999 25.5221 33.9204 25.8677 35.6762C26.2133 37.4319 27.0629 39.0441 28.3092 40.309C29.5554 41.5739 31.1424 42.4348 32.8696 42.7828C34.5967 43.1309 36.3866 42.9505 38.013 42.2645C39.6394 41.5784 41.0293 40.4175 42.0072 38.9285C42.985 37.4394 43.5069 35.689 43.5069 33.8984C43.5092 32.7068 43.2799 31.5266 42.832 30.4255C42.3842 29.3244 41.7267 28.3243 40.8973 27.4825C40.068 26.6408 39.0833 25.9741 37.9997 25.5208C36.9161 25.0675 35.755 24.8365 34.5833 24.8412ZM34.5833 39.7776C33.4399 39.7776 32.3222 39.4328 31.3714 38.7868C30.4207 38.1408 29.6797 37.2226 29.2422 36.1483C28.8046 35.074 28.6901 33.8919 28.9132 32.7514C29.1362 31.611 29.6869 30.5634 30.4954 29.7412C31.3039 28.9189 32.334 28.359 33.4555 28.1321C34.5769 27.9053 35.7393 28.0217 36.7957 28.4667C37.8521 28.9117 38.755 29.6652 39.3903 30.6321C40.0255 31.5989 40.3646 32.7356 40.3646 33.8984C40.3646 34.6705 40.2151 35.435 39.9245 36.1483C39.634 36.8616 39.2081 37.5097 38.6713 38.0556C38.1345 38.6016 37.4971 39.0346 36.7957 39.3301C36.0943 39.6256 35.3425 39.7776 34.5833 39.7776Z" fill="white"/>
</svg>
