<svg width="549" height="511" viewBox="0 0 549 511" fill="none" xmlns="http://www.w3.org/2000/svg">
<g clip-path="url(#clip0_103_131)">
<path d="M495.031 265.933C495.102 329.163 472.265 389.961 431.318 435.546C428.85 438.312 426.315 441.012 423.713 443.644C419.749 447.679 415.652 451.558 411.422 455.281C371.848 490.172 322.446 509.779 271.183 510.938C269.475 510.979 267.761 511 266.04 511C225.157 511 173.736 487.631 127.071 455.281C123.21 452.604 119.384 449.866 115.592 447.065C113.819 445.769 112.055 444.454 110.3 443.12C92.3023 429.52 75.2187 414.584 59.1755 398.423C48.6714 387.873 38.8213 376.601 29.6879 364.68C-6.16772 317.348 -14.0762 274.7 37.0421 265.933C43.0943 264.898 48.9681 263.792 54.6637 262.615C62.9138 260.918 70.8094 259.086 78.3504 257.117C88.5084 254.476 98.0518 251.611 106.981 248.523C109.984 247.488 112.919 246.433 115.785 245.357C158.157 229.43 186.517 208.661 205.821 186.126C209.095 182.312 212.113 178.452 214.876 174.545C219.104 168.599 222.943 162.349 226.368 155.839C231.096 146.793 235.067 137.318 238.234 127.524L238.408 126.986C253.768 79.5712 249.095 35.5917 266.04 20.872C338.473 -42.0555 428.65 47.5591 470.977 153.238C473.11 158.563 475.117 163.921 476.997 169.31C477.841 171.717 478.655 174.129 479.44 176.546C481.502 182.843 483.373 189.157 485.053 195.487C485.698 197.901 486.312 200.313 486.897 202.722C487.522 205.323 488.121 207.916 488.676 210.51C492.794 229.499 495.031 248.226 495.031 265.933Z" fill="#F2F2F2"/>
<path d="M271.183 510.938C269.475 510.979 267.761 511 266.04 511C225.157 511 173.736 487.631 127.071 455.281C123.21 452.604 119.384 449.866 115.592 447.065L118.918 425.407L219.601 411.101L270.133 452.453L271.183 510.938Z" fill="#2F2E41"/>
<path d="M276.03 124.192H261.683C261.238 124.193 260.812 124.382 260.498 124.718C260.184 125.054 260.007 125.51 260.007 125.986V141.347C260.007 141.582 260.051 141.815 260.135 142.032C260.219 142.249 260.343 142.446 260.499 142.612C260.654 142.778 260.839 142.909 261.042 142.999C261.245 143.088 261.463 143.134 261.683 143.133H276.03C276.473 143.134 276.899 142.946 277.213 142.611C277.527 142.276 277.704 141.821 277.706 141.347V125.986C277.705 125.51 277.528 125.055 277.214 124.719C276.9 124.383 276.474 124.194 276.03 124.192Z" fill="white"/>
<path d="M276.03 150.369H261.683C261.238 150.369 260.812 150.558 260.498 150.895C260.184 151.231 260.007 151.687 260.007 152.162V167.523C260.007 167.759 260.051 167.991 260.135 168.208C260.219 168.426 260.343 168.623 260.499 168.789C260.654 168.955 260.839 169.086 261.042 169.175C261.245 169.265 261.463 169.311 261.683 169.31H276.03C276.473 169.31 276.899 169.122 277.213 168.787C277.527 168.453 277.704 167.998 277.706 167.523V152.162C277.705 151.687 277.528 151.232 277.214 150.896C276.9 150.56 276.474 150.37 276.03 150.369Z" fill="#E6E6E6"/>
<path d="M276.03 176.546H261.683C261.238 176.546 260.812 176.735 260.498 177.071C260.184 177.407 260.007 177.864 260.007 178.339V193.693C260.006 193.929 260.049 194.162 260.134 194.38C260.218 194.598 260.341 194.796 260.497 194.962C260.652 195.129 260.837 195.261 261.041 195.351C261.244 195.441 261.462 195.487 261.683 195.487H276.03C276.474 195.486 276.901 195.297 277.215 194.961C277.529 194.625 277.706 194.169 277.706 193.693V178.339C277.705 177.864 277.528 177.408 277.214 177.072C276.9 176.736 276.474 176.547 276.03 176.546Z" fill="#E6E6E6"/>
<path d="M277.68 204.198C277.609 203.785 277.405 203.412 277.103 203.142C276.802 202.873 276.423 202.724 276.03 202.722H261.683C261.238 202.723 260.812 202.912 260.498 203.248C260.184 203.584 260.007 204.04 260.007 204.516V219.87C260.006 220.106 260.049 220.339 260.134 220.557C260.218 220.775 260.341 220.972 260.497 221.139C260.652 221.306 260.837 221.438 261.041 221.528C261.244 221.618 261.462 221.664 261.683 221.663H276.03C276.474 221.663 276.901 221.474 277.215 221.138C277.529 220.802 277.706 220.345 277.706 219.87V204.516C277.707 204.409 277.699 204.303 277.68 204.198Z" fill="#E6E6E6"/>
<path d="M276.681 229.037C276.475 228.946 276.253 228.899 276.03 228.899H261.683C261.462 228.899 261.244 228.945 261.041 229.035C260.837 229.125 260.652 229.257 260.497 229.423C260.341 229.59 260.218 229.788 260.134 230.006C260.05 230.223 260.006 230.457 260.007 230.692V246.047C260.006 246.282 260.049 246.516 260.132 246.734C260.216 246.952 260.34 247.15 260.496 247.317C260.651 247.484 260.836 247.616 261.04 247.706C261.244 247.795 261.462 247.841 261.683 247.84H276.03C276.474 247.84 276.901 247.651 277.215 247.315C277.529 246.978 277.706 246.522 277.706 246.047V230.692C277.705 230.339 277.608 229.994 277.425 229.7C277.243 229.406 276.984 229.175 276.681 229.037Z" fill="#E6E6E6"/>
<path d="M306.169 124.192H291.821C291.377 124.193 290.951 124.382 290.637 124.718C290.322 125.054 290.146 125.51 290.145 125.986V141.347C290.146 141.582 290.189 141.815 290.274 142.032C290.358 142.249 290.481 142.446 290.637 142.612C290.793 142.778 290.977 142.909 291.181 142.999C291.384 143.088 291.601 143.134 291.821 143.133H306.169C306.612 143.134 307.037 142.946 307.351 142.611C307.666 142.276 307.843 141.821 307.844 141.347V125.986C307.843 125.51 307.666 125.055 307.352 124.719C307.038 124.383 306.613 124.194 306.169 124.192Z" fill="#E6E6E6"/>
<path d="M306.169 150.369H291.821C291.377 150.369 290.951 150.558 290.636 150.895C290.322 151.231 290.146 151.687 290.145 152.162V167.523C290.146 167.759 290.189 167.991 290.274 168.208C290.358 168.426 290.481 168.623 290.637 168.789C290.793 168.955 290.977 169.086 291.181 169.175C291.384 169.265 291.601 169.311 291.821 169.31H306.169C306.612 169.31 307.037 169.122 307.352 168.787C307.666 168.453 307.843 167.998 307.844 167.523V152.162C307.843 151.687 307.666 151.232 307.352 150.896C307.038 150.56 306.613 150.37 306.169 150.369Z" fill="#608AF5"/>
<path d="M306.169 176.546H291.821C291.377 176.546 290.951 176.735 290.636 177.071C290.322 177.407 290.146 177.864 290.145 178.339V193.693C290.145 193.929 290.188 194.162 290.272 194.38C290.356 194.598 290.48 194.796 290.635 194.962C290.791 195.129 290.976 195.261 291.179 195.351C291.383 195.441 291.601 195.487 291.821 195.487H306.169C306.613 195.486 307.039 195.297 307.353 194.961C307.668 194.625 307.844 194.169 307.844 193.693V178.339C307.843 177.864 307.666 177.408 307.352 177.072C307.038 176.736 306.613 176.547 306.169 176.546Z" fill="#608AF5"/>
<path d="M306.169 202.722H291.821C291.47 202.723 291.128 202.841 290.843 203.062C290.558 203.282 290.346 203.593 290.236 203.95C290.176 204.132 290.146 204.323 290.145 204.516V219.87C290.145 220.106 290.188 220.339 290.272 220.557C290.356 220.775 290.48 220.972 290.635 221.139C290.791 221.306 290.976 221.438 291.179 221.528C291.383 221.618 291.601 221.664 291.821 221.663H306.169C306.613 221.663 307.039 221.474 307.353 221.138C307.668 220.801 307.844 220.345 307.844 219.87V204.516C307.843 204.04 307.666 203.585 307.352 203.249C307.038 202.913 306.613 202.724 306.169 202.722Z" fill="#608AF5"/>
<path d="M306.169 228.899H291.821C291.601 228.899 291.383 228.945 291.179 229.035C290.976 229.125 290.791 229.257 290.635 229.423C290.48 229.59 290.356 229.788 290.272 230.006C290.188 230.223 290.145 230.457 290.145 230.692V246.047C290.145 246.282 290.188 246.516 290.272 246.733C290.356 246.951 290.48 247.149 290.635 247.316C290.791 247.482 290.976 247.614 291.179 247.704C291.383 247.794 291.601 247.841 291.821 247.84H306.169C306.613 247.84 307.039 247.651 307.353 247.315C307.668 246.978 307.844 246.522 307.844 246.047V230.692C307.844 230.217 307.668 229.761 307.353 229.424C307.039 229.088 306.613 228.899 306.169 228.899Z" fill="#E6E6E6"/>
<path d="M336.307 124.192H321.96C321.515 124.193 321.089 124.382 320.775 124.718C320.461 125.054 320.284 125.51 320.284 125.986V141.347C320.284 141.582 320.328 141.815 320.412 142.032C320.497 142.249 320.62 142.446 320.776 142.612C320.931 142.778 321.116 142.909 321.319 142.999C321.522 143.088 321.74 143.134 321.96 143.133H336.307C336.751 143.134 337.176 142.946 337.49 142.611C337.804 142.276 337.981 141.821 337.983 141.347V125.986C337.982 125.51 337.805 125.055 337.491 124.719C337.177 124.383 336.751 124.194 336.307 124.192Z" fill="#608AF5"/>
<path d="M336.307 150.369H321.96C321.515 150.369 321.089 150.558 320.775 150.895C320.461 151.231 320.284 151.687 320.284 152.162V167.523C320.284 167.759 320.328 167.991 320.412 168.208C320.497 168.426 320.62 168.623 320.776 168.789C320.931 168.955 321.116 169.086 321.319 169.175C321.522 169.265 321.74 169.311 321.96 169.31H336.307C336.751 169.31 337.176 169.122 337.49 168.787C337.804 168.453 337.981 167.998 337.983 167.523V152.162C337.982 151.687 337.805 151.232 337.491 150.896C337.177 150.56 336.751 150.37 336.307 150.369Z" fill="#608AF5"/>
<path d="M336.307 176.546H321.96C321.515 176.546 321.089 176.735 320.775 177.071C320.461 177.407 320.284 177.864 320.284 178.339V193.693C320.284 193.929 320.327 194.162 320.411 194.38C320.495 194.598 320.618 194.796 320.774 194.962C320.93 195.129 321.115 195.261 321.318 195.351C321.522 195.441 321.74 195.487 321.96 195.487H336.307C336.752 195.486 337.178 195.297 337.492 194.961C337.806 194.625 337.983 194.169 337.983 193.693V178.339C337.982 177.864 337.805 177.408 337.491 177.072C337.177 176.736 336.751 176.547 336.307 176.546Z" fill="#E6E6E6"/>
<path d="M336.307 202.722H321.96C321.515 202.723 321.089 202.912 320.775 203.248C320.461 203.584 320.284 204.04 320.284 204.516V219.87C320.284 220.106 320.327 220.339 320.411 220.557C320.495 220.775 320.618 220.972 320.774 221.139C320.93 221.306 321.115 221.438 321.318 221.528C321.522 221.618 321.74 221.664 321.96 221.663H336.307C336.752 221.663 337.178 221.474 337.492 221.138C337.806 220.802 337.983 220.345 337.983 219.87V204.516C337.982 204.04 337.805 203.585 337.491 203.249C337.177 202.913 336.751 202.724 336.307 202.722Z" fill="#608AF5"/>
<path d="M336.307 228.899H321.96C321.74 228.899 321.522 228.945 321.318 229.035C321.115 229.125 320.93 229.257 320.774 229.423C320.618 229.59 320.495 229.788 320.411 230.006C320.327 230.223 320.284 230.457 320.284 230.692V246.047C320.284 246.282 320.327 246.516 320.411 246.733C320.495 246.951 320.618 247.149 320.774 247.316C320.93 247.482 321.115 247.614 321.318 247.704C321.522 247.794 321.74 247.841 321.96 247.84H336.307C336.752 247.84 337.178 247.651 337.492 247.315C337.806 246.978 337.983 246.522 337.983 246.047V230.692C337.983 230.217 337.806 229.761 337.492 229.424C337.178 229.088 336.752 228.899 336.307 228.899Z" fill="#608AF5"/>
<path d="M366.446 124.192H352.098C351.654 124.193 351.228 124.382 350.914 124.718C350.599 125.054 350.423 125.51 350.422 125.986V141.347C350.423 141.582 350.466 141.815 350.551 142.032C350.635 142.249 350.759 142.446 350.914 142.612C351.07 142.778 351.255 142.909 351.458 142.999C351.661 143.088 351.879 143.134 352.098 143.133H366.446C366.889 143.134 367.314 142.946 367.629 142.611C367.943 142.276 368.12 141.821 368.122 141.347V125.986C368.12 125.51 367.943 125.055 367.629 124.719C367.315 124.383 366.89 124.194 366.446 124.192Z" fill="#608AF5"/>
<path d="M366.446 150.369H352.098C351.654 150.369 351.228 150.558 350.914 150.895C350.599 151.231 350.423 151.687 350.422 152.162V167.523C350.423 167.759 350.466 167.991 350.551 168.208C350.635 168.426 350.759 168.623 350.914 168.789C351.07 168.955 351.255 169.086 351.458 169.175C351.661 169.265 351.879 169.311 352.098 169.31H366.446C366.889 169.31 367.314 169.122 367.629 168.787C367.943 168.453 368.12 167.998 368.122 167.523V152.162C368.12 151.687 367.943 151.232 367.629 150.896C367.315 150.56 366.89 150.37 366.446 150.369Z" fill="white"/>
<path d="M366.446 176.546H352.098C351.654 176.546 351.228 176.735 350.914 177.071C350.599 177.407 350.423 177.864 350.422 178.339V193.693C350.422 193.929 350.465 194.162 350.549 194.38C350.633 194.598 350.757 194.796 350.912 194.962C351.068 195.129 351.253 195.261 351.456 195.351C351.66 195.441 351.878 195.487 352.098 195.487H366.446C366.89 195.486 367.316 195.297 367.63 194.961C367.945 194.625 368.121 194.169 368.122 193.693V178.339C368.12 177.864 367.943 177.408 367.629 177.072C367.315 176.736 366.89 176.547 366.446 176.546Z" fill="white"/>
<path d="M366.446 202.722H352.098C351.654 202.723 351.228 202.912 350.914 203.248C350.599 203.584 350.423 204.04 350.422 204.516V219.87C350.422 220.106 350.465 220.339 350.549 220.557C350.633 220.775 350.757 220.972 350.912 221.139C351.068 221.306 351.253 221.438 351.456 221.528C351.66 221.618 351.878 221.664 352.098 221.663H366.446C366.89 221.663 367.316 221.474 367.63 221.138C367.945 220.802 368.121 220.345 368.122 219.87V204.516C368.12 204.04 367.943 203.585 367.629 203.249C367.315 202.913 366.89 202.724 366.446 202.722Z" fill="#E6E6E6"/>
<path d="M366.446 228.899H352.098C351.878 228.899 351.66 228.945 351.456 229.035C351.253 229.125 351.068 229.257 350.912 229.423C350.757 229.59 350.633 229.788 350.549 230.006C350.465 230.223 350.422 230.457 350.422 230.692V246.047C350.422 246.282 350.465 246.516 350.549 246.733C350.633 246.951 350.757 247.149 350.912 247.316C351.068 247.482 351.253 247.615 351.456 247.704C351.66 247.794 351.878 247.841 352.098 247.84H366.446C366.89 247.84 367.316 247.651 367.63 247.315C367.945 246.978 368.121 246.522 368.122 246.047V230.692C368.121 230.217 367.945 229.761 367.63 229.424C367.316 229.088 366.89 228.899 366.446 228.899Z" fill="#608AF5"/>
<path d="M396.584 124.192H382.23C381.787 124.194 381.362 124.384 381.049 124.72C380.737 125.056 380.561 125.511 380.561 125.986V141.347C380.561 141.821 380.737 142.275 381.05 142.61C381.363 142.945 381.788 143.133 382.23 143.133H396.584C397.028 143.134 397.453 142.946 397.767 142.611C398.081 142.276 398.259 141.821 398.26 141.347V125.986C398.259 125.51 398.082 125.055 397.768 124.719C397.454 124.383 397.028 124.194 396.584 124.192Z" fill="white"/>
<path d="M396.584 150.369H382.23C381.787 150.371 381.362 150.56 381.049 150.897C380.737 151.233 380.561 151.688 380.561 152.162V167.523C380.561 167.997 380.737 168.452 381.05 168.787C381.363 169.122 381.788 169.31 382.23 169.31H396.584C397.028 169.31 397.453 169.122 397.767 168.787C398.081 168.452 398.259 167.998 398.26 167.523V152.162C398.259 151.687 398.082 151.232 397.768 150.896C397.454 150.56 397.028 150.37 396.584 150.369Z" fill="white"/>
<path d="M396.584 176.546H382.23C381.787 176.547 381.362 176.737 381.049 177.073C380.737 177.409 380.561 177.865 380.561 178.339V193.693C380.56 193.928 380.603 194.161 380.687 194.379C380.77 194.596 380.893 194.794 381.048 194.96C381.203 195.127 381.388 195.259 381.59 195.349C381.793 195.44 382.011 195.486 382.23 195.487H396.584C397.029 195.486 397.455 195.297 397.769 194.961C398.083 194.625 398.26 194.169 398.26 193.693V178.339C398.259 177.864 398.082 177.408 397.768 177.072C397.454 176.736 397.028 176.547 396.584 176.546Z" fill="white"/>
<path d="M396.584 202.722H382.23C381.787 202.724 381.362 202.914 381.049 203.25C380.737 203.586 380.561 204.041 380.561 204.516V219.87C380.56 220.105 380.603 220.338 380.687 220.555C380.77 220.773 380.893 220.971 381.048 221.137C381.203 221.304 381.388 221.436 381.59 221.526C381.793 221.616 382.011 221.663 382.23 221.663H396.584C397.029 221.663 397.455 221.474 397.769 221.138C398.083 220.802 398.26 220.346 398.26 219.87V204.516C398.259 204.04 398.082 203.585 397.768 203.249C397.454 202.913 397.028 202.724 396.584 202.722Z" fill="#608AF5"/>
<path d="M396.584 228.899H382.23C382.011 228.899 381.793 228.946 381.59 229.036C381.388 229.126 381.203 229.259 381.048 229.425C380.893 229.592 380.77 229.789 380.687 230.007C380.603 230.224 380.56 230.457 380.561 230.692V246.047C380.56 246.282 380.603 246.515 380.687 246.732C380.77 246.95 380.893 247.147 381.048 247.314C381.203 247.48 381.388 247.613 381.59 247.703C381.793 247.793 382.011 247.84 382.23 247.84H396.584C397.029 247.84 397.455 247.651 397.769 247.315C398.083 246.978 398.26 246.522 398.26 246.047V230.692C398.26 230.217 398.083 229.761 397.769 229.424C397.455 229.088 397.029 228.899 396.584 228.899Z" fill="#E6E6E6"/>
<path d="M426.723 124.192H412.369C411.926 124.194 411.501 124.384 411.188 124.72C410.875 125.056 410.699 125.511 410.7 125.986V141.347C410.7 141.821 410.876 142.275 411.189 142.61C411.502 142.945 411.926 143.133 412.369 143.133H426.723C427.166 143.133 427.592 142.946 427.906 142.611C428.22 142.276 428.397 141.821 428.399 141.347V125.986C428.397 125.51 428.22 125.055 427.906 124.719C427.592 124.383 427.167 124.194 426.723 124.192Z" fill="white"/>
<path d="M426.723 150.369H412.369C411.926 150.371 411.501 150.56 411.188 150.897C410.875 151.233 410.699 151.688 410.7 152.162V167.523C410.7 167.997 410.876 168.452 411.189 168.787C411.502 169.122 411.926 169.31 412.369 169.31H426.723C427.166 169.31 427.592 169.122 427.906 168.787C428.22 168.452 428.397 167.998 428.399 167.523V152.162C428.397 151.687 428.22 151.232 427.906 150.896C427.592 150.56 427.167 150.37 426.723 150.369Z" fill="white"/>
<path d="M426.723 176.546H412.369C411.926 176.547 411.501 176.737 411.188 177.073C410.875 177.409 410.699 177.865 410.7 178.339V193.693C410.699 193.928 410.742 194.161 410.825 194.379C410.909 194.596 411.032 194.794 411.187 194.96C411.342 195.127 411.526 195.259 411.729 195.349C411.932 195.44 412.149 195.486 412.369 195.487H426.723C427.167 195.486 427.593 195.297 427.908 194.961C428.222 194.625 428.398 194.169 428.399 193.693V178.339C428.397 177.864 428.22 177.408 427.906 177.072C427.592 176.736 427.167 176.547 426.723 176.546Z" fill="#608AF5"/>
<path d="M426.723 202.722H412.369C411.926 202.724 411.501 202.914 411.188 203.25C410.875 203.586 410.699 204.041 410.7 204.516V219.87C410.699 220.105 410.742 220.338 410.825 220.555C410.909 220.773 411.032 220.971 411.187 221.137C411.342 221.304 411.526 221.436 411.729 221.526C411.932 221.616 412.149 221.663 412.369 221.663H426.723C427.167 221.663 427.593 221.474 427.908 221.138C428.222 220.802 428.398 220.346 428.399 219.87V204.516C428.397 204.041 428.22 203.585 427.906 203.249C427.592 202.913 427.167 202.724 426.723 202.722Z" fill="#E6E6E6"/>
<path d="M426.723 228.899H412.369C412.149 228.899 411.932 228.946 411.729 229.036C411.526 229.126 411.342 229.259 411.187 229.425C411.032 229.592 410.909 229.789 410.825 230.007C410.742 230.224 410.699 230.457 410.7 230.692V246.047C410.699 246.282 410.742 246.515 410.825 246.732C410.909 246.95 411.032 247.147 411.187 247.314C411.342 247.48 411.526 247.613 411.729 247.703C411.932 247.793 412.149 247.84 412.369 247.84H426.723C427.167 247.84 427.593 247.651 427.908 247.314C428.222 246.978 428.398 246.522 428.399 246.047V230.692C428.398 230.217 428.222 229.761 427.908 229.425C427.593 229.088 427.167 228.899 426.723 228.899Z" fill="white"/>
<path d="M456.861 124.192H442.507C442.064 124.194 441.639 124.384 441.327 124.72C441.014 125.056 440.838 125.511 440.838 125.986V141.347C440.838 141.821 441.014 142.275 441.327 142.61C441.64 142.945 442.065 143.133 442.507 143.133H456.861C457.305 143.133 457.73 142.946 458.044 142.611C458.358 142.276 458.536 141.821 458.537 141.347V125.986C458.536 125.51 458.359 125.055 458.045 124.719C457.731 124.383 457.305 124.194 456.861 124.192Z" fill="#608AF5"/>
<path d="M456.861 150.369H442.507C442.064 150.371 441.639 150.56 441.326 150.897C441.014 151.233 440.838 151.688 440.838 152.162V167.523C440.838 167.997 441.014 168.452 441.327 168.787C441.64 169.122 442.065 169.31 442.507 169.31H456.861C457.305 169.31 457.73 169.122 458.044 168.787C458.358 168.452 458.536 167.998 458.537 167.523V152.162C458.536 151.687 458.359 151.232 458.045 150.896C457.731 150.56 457.305 150.37 456.861 150.369Z" fill="#608AF5"/>
<path d="M456.861 176.546H442.508C442.064 176.547 441.639 176.737 441.326 177.073C441.014 177.409 440.838 177.865 440.838 178.339V193.693C440.838 193.928 440.88 194.161 440.964 194.379C441.047 194.596 441.17 194.794 441.325 194.96C441.48 195.127 441.665 195.259 441.867 195.349C442.07 195.44 442.288 195.486 442.508 195.487H456.861C457.306 195.486 457.732 195.297 458.046 194.961C458.36 194.625 458.537 194.169 458.537 193.693V178.339C458.536 177.864 458.359 177.408 458.045 177.072C457.731 176.736 457.305 176.547 456.861 176.546Z" fill="#E6E6E6"/>
<path d="M456.861 202.722H442.508C442.064 202.724 441.639 202.914 441.327 203.25C441.014 203.586 440.838 204.041 440.838 204.516V219.87C440.838 220.105 440.88 220.338 440.964 220.555C441.047 220.773 441.17 220.971 441.325 221.137C441.48 221.304 441.665 221.436 441.867 221.526C442.07 221.616 442.288 221.663 442.508 221.663H456.861C457.306 221.663 457.732 221.474 458.046 221.138C458.36 220.802 458.537 220.346 458.537 219.87V204.516C458.536 204.041 458.359 203.585 458.045 203.249C457.731 202.913 457.305 202.724 456.861 202.722Z" fill="white"/>
<path d="M456.861 228.899H442.508C442.288 228.899 442.07 228.946 441.867 229.036C441.665 229.126 441.48 229.259 441.325 229.425C441.17 229.592 441.047 229.789 440.964 230.007C440.88 230.224 440.838 230.457 440.838 230.692V246.047C440.838 246.282 440.88 246.515 440.964 246.732C441.047 246.95 441.17 247.147 441.325 247.314C441.48 247.48 441.665 247.613 441.867 247.703C442.07 247.793 442.288 247.84 442.508 247.84H456.861C457.306 247.84 457.732 247.651 458.046 247.314C458.36 246.978 458.537 246.522 458.537 246.047V230.692C458.537 230.217 458.36 229.761 458.046 229.425C457.732 229.088 457.306 228.899 456.861 228.899Z" fill="#608AF5"/>
<path d="M487 124.192H472.646C472.203 124.194 471.778 124.384 471.465 124.72C471.152 125.056 470.977 125.511 470.977 125.986V141.347C470.977 141.821 471.153 142.275 471.466 142.61C471.779 142.945 472.203 143.133 472.646 143.133H487C487.443 143.133 487.869 142.946 488.183 142.611C488.497 142.276 488.674 141.821 488.676 141.347V125.986C488.674 125.51 488.497 125.055 488.183 124.719C487.869 124.383 487.444 124.194 487 124.192Z" fill="#608AF5"/>
<path d="M487 150.369H472.646C472.203 150.371 471.778 150.56 471.465 150.897C471.152 151.233 470.977 151.688 470.977 152.162V167.523C470.977 167.997 471.153 168.452 471.466 168.787C471.779 169.122 472.203 169.31 472.646 169.31H487C487.443 169.31 487.869 169.122 488.183 168.787C488.497 168.452 488.674 167.998 488.676 167.523V152.162C488.674 151.687 488.497 151.232 488.183 150.896C487.869 150.56 487.444 150.37 487 150.369Z" fill="#608AF5"/>
<path d="M487 176.546H472.646C472.203 176.547 471.778 176.737 471.465 177.073C471.152 177.409 470.977 177.865 470.977 178.339V193.693C470.976 193.928 471.019 194.161 471.102 194.379C471.186 194.596 471.309 194.794 471.464 194.96C471.619 195.127 471.803 195.259 472.006 195.349C472.209 195.44 472.426 195.486 472.646 195.487H487C487.444 195.486 487.87 195.297 488.185 194.961C488.499 194.625 488.675 194.169 488.676 193.693V178.339C488.674 177.864 488.497 177.409 488.183 177.072C487.869 176.736 487.444 176.547 487 176.546Z" fill="#E6E6E6"/>
<path d="M487 202.722H472.646C472.203 202.724 471.778 202.914 471.465 203.25C471.152 203.586 470.977 204.041 470.977 204.516V219.87C470.976 220.105 471.019 220.338 471.102 220.555C471.186 220.773 471.309 220.971 471.464 221.137C471.619 221.304 471.803 221.436 472.006 221.526C472.209 221.616 472.426 221.663 472.646 221.663H487C487.444 221.663 487.87 221.474 488.185 221.138C488.499 220.802 488.676 220.346 488.676 219.87V204.516C488.674 204.041 488.497 203.585 488.183 203.249C487.869 202.913 487.444 202.724 487 202.722Z" fill="#608AF5"/>
<path d="M487 228.899H472.646C472.426 228.899 472.209 228.946 472.006 229.036C471.803 229.126 471.619 229.259 471.464 229.425C471.309 229.592 471.186 229.789 471.102 230.007C471.019 230.224 470.976 230.457 470.977 230.692V246.047C470.976 246.282 471.019 246.515 471.102 246.732C471.186 246.95 471.309 247.147 471.464 247.314C471.619 247.48 471.803 247.613 472.006 247.703C472.209 247.793 472.426 247.84 472.646 247.84H487C487.444 247.84 487.87 247.651 488.185 247.314C488.499 246.978 488.676 246.522 488.676 246.047V230.692C488.676 230.217 488.499 229.761 488.185 229.425C487.87 229.088 487.444 228.899 487 228.899Z" fill="#608AF5"/>
<path d="M517.139 124.192H502.785C502.341 124.194 501.917 124.384 501.604 124.72C501.291 125.056 501.115 125.511 501.115 125.986V141.347C501.115 141.821 501.291 142.275 501.604 142.61C501.917 142.945 502.342 143.133 502.785 143.133H517.139C517.582 143.133 518.007 142.946 518.321 142.611C518.635 142.276 518.813 141.821 518.814 141.347V125.986C518.813 125.51 518.636 125.055 518.322 124.719C518.008 124.383 517.583 124.194 517.139 124.192Z" fill="#E6E6E6"/>
<path d="M517.139 150.369H502.785C502.341 150.371 501.917 150.56 501.604 150.897C501.291 151.233 501.115 151.688 501.115 152.162V167.523C501.115 167.997 501.291 168.452 501.604 168.787C501.917 169.122 502.342 169.31 502.785 169.31H517.139C517.582 169.31 518.007 169.122 518.321 168.787C518.635 168.452 518.813 167.998 518.814 167.523V152.162C518.813 151.687 518.636 151.232 518.322 150.896C518.008 150.56 517.583 150.37 517.139 150.369Z" fill="#608AF5"/>
<path d="M517.139 176.546H502.785C502.341 176.547 501.917 176.737 501.604 177.073C501.291 177.409 501.115 177.865 501.115 178.339V193.693C501.115 193.928 501.157 194.161 501.241 194.379C501.325 194.596 501.447 194.794 501.603 194.96C501.758 195.127 501.942 195.259 502.145 195.349C502.348 195.44 502.565 195.486 502.785 195.487H517.139C517.583 195.486 518.009 195.297 518.323 194.961C518.637 194.625 518.814 194.169 518.814 193.693V178.339C518.813 177.864 518.636 177.409 518.322 177.072C518.008 176.736 517.583 176.547 517.139 176.546Z" fill="#608AF5"/>
<path d="M517.139 202.722H502.785C502.341 202.724 501.917 202.914 501.604 203.25C501.291 203.586 501.115 204.041 501.115 204.516V219.87C501.115 220.105 501.157 220.338 501.241 220.555C501.325 220.773 501.447 220.971 501.603 221.137C501.758 221.304 501.942 221.436 502.145 221.526C502.347 221.616 502.565 221.663 502.785 221.663H517.139C517.583 221.663 518.009 221.474 518.323 221.138C518.637 220.802 518.814 220.346 518.814 219.87V204.516C518.813 204.041 518.636 203.585 518.322 203.249C518.008 202.913 517.583 202.724 517.139 202.722Z" fill="#608AF5"/>
<path d="M517.139 228.899H502.785C502.565 228.899 502.347 228.946 502.145 229.036C501.942 229.126 501.758 229.259 501.603 229.425C501.447 229.592 501.325 229.789 501.241 230.007C501.157 230.224 501.115 230.457 501.115 230.692V246.047C501.115 246.282 501.157 246.515 501.241 246.732C501.325 246.95 501.447 247.147 501.603 247.314C501.758 247.48 501.942 247.613 502.145 247.703C502.347 247.793 502.565 247.84 502.785 247.84H517.139C517.583 247.84 518.009 247.651 518.323 247.314C518.637 246.978 518.814 246.522 518.814 246.047V230.692C518.814 230.217 518.637 229.761 518.323 229.425C518.009 229.088 517.583 228.899 517.139 228.899Z" fill="#E6E6E6"/>
<path d="M547.277 124.192H532.923C532.48 124.194 532.055 124.384 531.742 124.72C531.429 125.056 531.254 125.511 531.254 125.986V141.347C531.254 141.821 531.43 142.275 531.743 142.61C532.056 142.945 532.48 143.133 532.923 143.133H547.277C547.72 143.133 548.146 142.946 548.46 142.611C548.774 142.276 548.951 141.821 548.953 141.347V125.986C548.952 125.51 548.775 125.055 548.461 124.719C548.147 124.383 547.721 124.194 547.277 124.192Z" fill="#E6E6E6"/>
<path d="M547.277 150.369H532.923C532.48 150.371 532.055 150.56 531.742 150.897C531.429 151.233 531.254 151.688 531.254 152.162V167.523C531.254 167.997 531.43 168.452 531.743 168.787C532.056 169.122 532.48 169.31 532.923 169.31H547.277C547.72 169.31 548.146 169.122 548.46 168.787C548.774 168.452 548.951 167.998 548.953 167.523V152.162C548.952 151.687 548.775 151.232 548.461 150.896C548.147 150.56 547.721 150.37 547.277 150.369Z" fill="#E6E6E6"/>
<path d="M547.277 176.546H532.923C532.48 176.547 532.055 176.737 531.742 177.073C531.429 177.409 531.254 177.865 531.254 178.339V193.693C531.253 193.928 531.296 194.161 531.38 194.379C531.463 194.596 531.586 194.794 531.741 194.96C531.896 195.127 532.08 195.259 532.283 195.349C532.486 195.44 532.704 195.486 532.923 195.487H547.277C547.721 195.486 548.148 195.297 548.462 194.961C548.776 194.625 548.953 194.169 548.953 193.693V178.339C548.952 177.864 548.775 177.409 548.461 177.072C548.147 176.736 547.721 176.547 547.277 176.546Z" fill="#608AF5"/>
<path d="M547.277 202.722H532.923C532.48 202.724 532.055 202.914 531.742 203.25C531.429 203.586 531.254 204.041 531.254 204.516V219.87C531.253 220.105 531.296 220.338 531.38 220.555C531.463 220.773 531.586 220.971 531.741 221.137C531.896 221.304 532.08 221.436 532.283 221.526C532.486 221.616 532.703 221.663 532.923 221.663H547.277C547.721 221.663 548.148 221.474 548.462 221.138C548.776 220.802 548.953 220.346 548.953 219.87V204.516C548.952 204.041 548.775 203.585 548.461 203.249C548.147 202.913 547.721 202.724 547.277 202.722Z" fill="#E6E6E6"/>
<path d="M547.277 228.899H532.923C532.703 228.899 532.486 228.946 532.283 229.036C532.08 229.126 531.896 229.259 531.741 229.425C531.586 229.592 531.463 229.789 531.38 230.007C531.296 230.224 531.253 230.457 531.254 230.692V246.047C531.253 246.282 531.296 246.515 531.38 246.732C531.463 246.95 531.586 247.147 531.741 247.314C531.896 247.48 532.08 247.613 532.283 247.703C532.486 247.793 532.703 247.84 532.923 247.84H547.277C547.721 247.84 548.148 247.651 548.462 247.314C548.776 246.978 548.953 246.522 548.953 246.047V230.692C548.953 230.217 548.776 229.761 548.462 229.425C548.148 229.088 547.721 228.899 547.277 228.899Z" fill="#E6E6E6"/>
<path d="M217.375 455.28H216.976L217.317 455.233L217.375 455.28Z" fill="#2F2E41"/>
<path d="M183.034 169.031C207.354 169.031 227.07 147.932 227.07 121.905C227.07 95.8774 207.354 74.7783 183.034 74.7783C158.713 74.7783 138.998 95.8774 138.998 121.905C138.998 147.932 158.713 169.031 183.034 169.031Z" fill="#FFB6B6"/>
<path d="M221.598 87.3524C221.598 87.3524 233.115 63.7893 207.776 61.6472C207.776 61.6472 186.175 40.6767 164.157 57.8134C164.157 57.8134 152.147 57.8134 145.579 72.3577C145.579 72.3577 136.134 68.5239 134.058 78.7839C134.058 78.7839 127.146 100.205 134.058 119.484C140.97 138.763 143.265 140.905 143.265 140.905C143.265 140.905 131.908 100.486 159.553 98.3435C187.198 96.2013 218.133 77.7129 220.437 101.276C222.74 124.839 226.207 130.645 226.207 130.645C226.207 130.645 248.089 96.9919 221.598 87.3524Z" fill="#2F2E41"/>
<path d="M296.945 238.045L296.803 238.845L295.211 247.84L284.209 310.057L283.558 313.72L282.192 321.466L280.323 332.033L276.178 355.451L274.992 362.162L274.548 364.68L274.393 365.563L273.162 372.509L272.788 374.605L269.785 398.423L267.161 419.178L275.94 428.573L270.706 434.174L267.271 455.232L267.277 455.281H127.071C121.399 451.349 115.809 447.295 110.3 443.12L111.454 433.877C111.454 433.877 115.424 417.371 113.755 415.398C112.092 413.426 108.444 409.901 108.444 409.901L113.039 398.423L113.678 396.83L112.608 373.081L112.582 372.509L112.227 364.68L112.182 363.673L112.111 362.162L110.751 332.033L110.726 331.536L110.313 322.404L109.926 313.72L109.759 310.057L108.102 273.41L106.981 248.523L106.001 226.857L109.939 225.429L152.06 210.11L169.507 185.837L205.821 186.126L223.597 186.271L253.259 215.711L260.007 219.159L260.059 219.187L264.899 221.663L277.171 227.933L290.146 234.569L296.804 237.969L296.945 238.045Z" fill="#CACACA"/>
<path d="M174.2 384.58C171.539 385.684 168.684 386.149 165.837 385.944C162.99 385.739 160.219 384.868 157.72 383.393C155.221 381.918 153.055 379.874 151.374 377.406C149.693 374.939 148.538 372.106 147.991 369.109L79.3096 358.681L103.185 329.778L164.745 344.112C169.511 343.461 174.335 344.704 178.302 347.605C182.269 350.506 185.104 354.864 186.269 359.852C187.434 364.84 186.85 370.113 184.625 374.67C182.401 379.228 178.691 382.754 174.2 384.58V384.58Z" fill="#FFB6B6"/>
<path d="M143.578 332.033C142.305 330.307 140.504 329.117 138.492 328.674L110.313 322.404L107.419 321.762C105.737 321.387 104.149 320.635 102.757 319.557C101.365 318.479 100.202 317.099 99.343 315.506C98.4522 313.834 97.9133 311.975 97.7639 310.057C97.6296 308.313 97.8246 306.559 98.3375 304.898L108.102 273.41L114.438 252.979C115.206 250.515 115.659 247.951 115.785 245.357C116.138 238.178 114.063 231.104 109.939 225.429C106.314 220.442 101.286 216.834 95.5972 215.14C89.9089 213.446 83.8622 213.755 78.3504 216.021C78.1893 216.083 78.0217 216.152 77.8606 216.221C73.9078 217.91 70.3763 220.56 67.545 223.961C64.7138 227.362 62.6605 231.421 61.5473 235.817L54.6637 262.615L40.4645 317.858C39.0431 323.393 38.756 329.191 39.6227 334.856C40.4894 340.521 42.4896 345.918 45.4863 350.679C48.483 355.44 52.4055 359.451 56.9852 362.439C61.565 365.427 66.694 367.321 72.021 367.991L112.608 373.081L131.389 375.44C133.561 375.719 135.752 375.113 137.524 373.741C139.297 372.37 140.522 370.334 140.954 368.039C140.985 367.914 141.008 367.787 141.025 367.659L141.476 364.68L145.299 339.586L145.337 339.331C145.536 338.05 145.483 336.739 145.18 335.482C144.876 334.226 144.331 333.05 143.578 332.033Z" fill="#CACACA"/>
<path d="M217.947 385.385C220.727 386.075 223.615 386.105 226.406 385.473C229.198 384.84 231.826 383.56 234.106 381.722C236.385 379.885 238.261 377.535 239.6 374.838C240.939 372.141 241.709 369.163 241.856 366.113L308.477 345.424L281.031 320.413L221.975 343.894C217.171 343.969 212.559 345.927 209.014 349.398C205.469 352.869 203.237 357.611 202.74 362.725C202.244 367.839 203.518 372.971 206.32 377.147C209.123 381.324 213.26 384.255 217.947 385.385V385.385Z" fill="#FFB6B6"/>
<path d="M341.554 299.145L309.868 221.105C307.277 214.698 302.648 209.48 296.803 206.378C294.997 205.426 293.1 204.686 291.144 204.171C290.841 204.088 290.539 204.012 290.236 203.95C286.09 202.982 281.79 203.067 277.68 204.198C273.923 205.231 270.413 207.1 267.376 209.682C264.34 212.265 261.846 215.504 260.058 219.187C260.039 219.218 260.022 219.25 260.007 219.284C258.01 223.418 256.947 227.997 256.906 232.652C256.865 237.306 257.845 241.906 259.768 246.081L260.162 246.923L282.553 295.048C283.317 296.693 283.748 298.493 283.817 300.33C283.886 302.166 283.591 303.997 282.952 305.703C282.313 307.409 281.344 308.951 280.109 310.228C278.874 311.505 277.4 312.488 275.785 313.113L274.212 313.72L245.93 324.652C243.808 325.463 242.062 327.123 241.061 329.283C240.059 331.443 239.88 333.935 240.561 336.234L240.632 336.475L248.56 363.624C248.598 363.748 248.637 363.873 248.682 363.997C248.752 364.231 248.838 364.459 248.94 364.68C249.783 366.702 251.272 368.336 253.14 369.288C255.008 370.24 257.132 370.448 259.13 369.874L274.393 365.563L277.506 364.68L316.919 353.54C322.105 352.073 326.934 349.425 331.075 345.776C335.215 342.126 338.57 337.563 340.91 332.397C343.249 327.231 344.518 321.585 344.629 315.846C344.74 310.107 343.691 304.41 341.554 299.145L341.554 299.145Z" fill="#CACACA"/>
<path d="M29.6879 364.68C38.8213 376.601 48.6713 387.873 59.1755 398.423H350.487C353.294 398.428 355.984 399.624 357.968 401.748C359.952 403.873 361.068 406.752 361.07 409.756L361.489 488.755C379.41 479.944 396.193 468.692 411.422 455.281C415.65 451.563 419.747 447.684 423.713 443.644C426.31 441.009 428.846 438.31 431.318 435.546C449.858 414.878 464.87 390.893 475.675 364.68H29.6879Z" fill="#3F3D56"/>
<path d="M431.318 435.546C428.85 438.312 426.315 441.012 423.713 443.644H361.702V435.546H431.318Z" fill="white"/>
<path d="M296.365 176.546C296.059 175.941 295.606 175.435 295.053 175.083C294.5 174.731 293.869 174.545 293.226 174.545H81.9212C80.9738 174.548 80.0661 174.952 79.3968 175.67C78.7275 176.387 78.3512 177.36 78.3504 178.374V313.72H296.803V178.374C296.807 177.734 296.656 177.104 296.365 176.546Z" fill="#3F3D56"/>
<path d="M78.1591 310.055V326.757C78.1591 327.45 78.2865 328.135 78.5341 328.775C78.7817 329.415 79.1446 329.996 79.6021 330.485C80.0596 330.975 80.6027 331.363 81.2005 331.628C81.7982 331.893 82.4388 332.03 83.0858 332.03H163.715V364.991H162.644C162.56 364.991 162.477 365.009 162.399 365.043C162.322 365.078 162.251 365.128 162.192 365.192C162.132 365.255 162.085 365.331 162.053 365.414C162.021 365.497 162.004 365.586 162.004 365.676V367.969C162.004 368.059 162.021 368.148 162.053 368.231C162.085 368.314 162.132 368.39 162.192 368.453C162.251 368.517 162.322 368.567 162.399 368.602C162.477 368.636 162.56 368.654 162.644 368.654H212.698C212.782 368.654 212.865 368.636 212.943 368.602C213.021 368.567 213.091 368.517 213.151 368.453C213.21 368.39 213.257 368.314 213.289 368.231C213.321 368.148 213.338 368.059 213.338 367.969V365.676C213.338 365.586 213.321 365.497 213.289 365.414C213.257 365.331 213.21 365.255 213.151 365.192C213.091 365.128 213.021 365.078 212.943 365.043C212.865 365.009 212.782 364.991 212.698 364.991H211.627V332.03H292.256C292.903 332.03 293.544 331.893 294.142 331.628C294.739 331.363 295.283 330.975 295.74 330.485C296.198 329.996 296.56 329.415 296.808 328.775C297.056 328.135 297.183 327.45 297.183 326.757V310.055H78.1591Z" fill="#3F3D56"/>
<path d="M185.025 262.119C196.169 262.119 205.203 252.451 205.203 240.524C205.203 228.598 196.169 218.93 185.025 218.93C173.88 218.93 164.846 228.598 164.846 240.524C164.846 252.451 173.88 262.119 185.025 262.119Z" fill="#608AF5"/>
<path d="M236.436 119.329H233.213C233.213 93.2562 209.101 76.1707 184.776 76.1569C181.238 76.1458 177.708 76.5132 174.238 77.2536C170.332 78.0883 166.278 79.0884 162.295 80.3921C146.588 85.5446 132.021 95.5049 132.021 119.329C132.018 123.956 132.568 128.565 133.658 133.042L130.539 133.911C129.382 129.15 128.797 124.249 128.798 119.329C128.798 98.5123 136.784 84.2134 150.577 75.6879C157.828 71.2044 166.678 68.3142 176.816 66.9071C181.035 66.3064 185.301 66.1678 189.546 66.4933C217.519 68.6453 236.436 91.6008 236.436 119.329Z" fill="#608AF5"/>
<path d="M241.805 121.24L240.535 111.197C240.222 108.661 239.081 106.325 237.313 104.603C236.178 103.48 234.819 102.648 233.34 102.171C231.86 101.693 230.298 101.581 228.773 101.844L226.755 102.14C226.203 102.218 225.671 102.412 225.19 102.712C224.708 103.012 224.288 103.41 223.951 103.886C223.612 104.359 223.364 104.9 223.222 105.476C223.079 106.053 223.044 106.654 223.12 107.245L226.053 130.379C226.173 131.322 226.568 132.201 227.181 132.89C227.794 133.58 228.595 134.046 229.469 134.221C229.728 134.277 229.991 134.305 230.255 134.304C230.445 134.304 230.634 134.29 230.822 134.263L233.078 133.939C234.453 133.743 235.777 133.249 236.967 132.486C238.158 131.724 239.19 130.709 240 129.503C240.174 129.241 240.342 128.972 240.497 128.696C241.705 126.439 242.166 123.812 241.805 121.24Z" fill="#608AF5"/>
<path d="M225.453 102.561C224.862 102.869 224.347 103.323 223.951 103.886C223.612 104.359 223.364 104.9 223.222 105.476C223.079 106.053 223.044 106.654 223.12 107.245L226.053 130.38C226.173 131.322 226.568 132.201 227.181 132.89C227.794 133.58 228.595 134.046 229.469 134.222L225.453 102.561Z" fill="white"/>
<path d="M241.805 121.24L240.535 111.197C240.222 108.661 239.081 106.325 237.313 104.603L240.232 127.62C240.276 127.99 240.365 128.352 240.497 128.696C241.705 126.44 242.166 123.812 241.805 121.24Z" fill="#3F3D56"/>
<path d="M231.77 128.476C232.652 128.348 233.095 126.102 232.76 123.46C232.425 120.817 231.439 118.779 230.557 118.907C229.675 119.035 229.232 121.281 229.567 123.923C229.902 126.566 230.888 128.604 231.77 128.476Z" fill="#3F3D56"/>
<path d="M229.836 116.06C230.718 115.932 231.161 113.687 230.826 111.044C230.491 108.402 229.505 106.363 228.623 106.491C227.741 106.619 227.298 108.865 227.633 111.508C227.968 114.15 228.954 116.188 229.836 116.06Z" fill="#3F3D56"/>
<path d="M242.082 120.889C242.964 120.761 243.408 118.515 243.073 115.872C242.738 113.23 241.751 111.192 240.869 111.32C239.988 111.448 239.544 113.694 239.879 116.336C240.214 118.978 241.201 121.017 242.082 120.889Z" fill="#3F3D56"/>
<path d="M184.776 76.1569C181.238 76.1458 177.708 76.5132 174.238 77.2536C170.332 78.0882 166.278 79.0884 162.295 80.3921C156.075 80.0679 151.499 78.3434 150.577 75.6878C157.828 71.2043 166.678 68.3142 176.816 66.9071C181.035 66.3064 185.301 66.1678 189.546 66.4932C189.995 66.7752 190.384 67.1557 190.686 67.6099C190.988 68.064 191.197 68.5814 191.299 69.1281C191.602 71.5286 189.043 74.0807 184.776 76.1569Z" fill="#3F3D56"/>
<path d="M143.629 143.264L138.666 121.185C138.489 120.388 138.096 119.665 137.537 119.107C136.977 118.549 136.276 118.18 135.521 118.047C135.308 118.011 135.092 117.993 134.876 117.991C134.572 117.992 134.269 118.032 133.974 118.109L132.053 118.605C129.58 119.245 127.446 120.909 126.118 123.232C124.79 125.554 124.377 128.346 124.97 130.993L127.193 140.899C127.701 143.23 128.91 145.319 130.635 146.844C130.915 147.086 131.208 147.309 131.512 147.513C132.592 148.238 133.797 148.724 135.056 148.942C136.315 149.16 137.601 149.106 138.84 148.783L140.755 148.286C141.261 148.16 141.737 147.922 142.153 147.589C142.772 147.106 143.243 146.437 143.506 145.667C143.769 144.897 143.812 144.061 143.629 143.264Z" fill="#608AF5"/>
<path d="M133.225 139.156C134.09 138.933 134.319 136.651 133.736 134.058C133.153 131.466 131.979 129.545 131.114 129.767C130.248 129.99 130.02 132.273 130.603 134.865C131.186 137.458 132.36 139.379 133.225 139.156Z" fill="#3F3D56"/>
<path d="M126.779 141.226C127.645 141.003 127.874 138.72 127.291 136.128C126.708 133.535 125.534 131.614 124.668 131.837C123.803 132.06 123.574 134.342 124.157 136.935C124.74 139.527 125.914 141.448 126.779 141.226Z" fill="#3F3D56"/>
<path d="M143.945 143.182L138.982 121.102C138.789 120.24 138.362 119.459 137.756 118.855C137.149 118.251 136.39 117.852 135.572 117.708L142.347 147.865C143.016 147.341 143.524 146.616 143.809 145.783C144.093 144.949 144.141 144.044 143.945 143.182Z" fill="white"/>
<path d="M126.091 126.62C125.954 126.006 125.697 125.43 125.337 124.93C124.64 126.864 124.511 128.98 124.97 130.993L127.193 140.898C127.701 143.23 128.91 145.319 130.635 146.844L126.091 126.62Z" fill="#3F3D56"/>
</g>
<defs>
<clipPath id="clip0_103_131">
<rect width="548.203" height="511" fill="white" transform="translate(0.749451)"/>
</clipPath>
</defs>
</svg>
