<svg width="70" height="68" viewBox="0 0 70 68" fill="none" xmlns="http://www.w3.org/2000/svg">
<path fill-rule="evenodd" clip-rule="evenodd" d="M35.7438 0.0152629C42.29 -0.289405 48.0297 4.0228 53.5573 7.96307C59.4551 12.1672 66.617 15.9595 68.631 23.4585C70.6364 30.9258 66.5737 38.5074 63.663 45.5909C61.0807 51.8753 57.912 57.8401 52.8648 61.8269C47.8686 65.7735 41.8115 68.4808 35.7438 67.6446C29.9994 66.853 26.5601 60.5017 21.4321 57.4954C14.9446 53.6921 5.5294 54.8547 1.84088 47.7689C-1.85265 40.6735 0.622379 31.1827 3.91445 23.8435C6.94068 17.097 13.3704 13.7678 18.9743 9.57261C24.3195 5.571 29.3203 0.314222 35.7438 0.0152629Z" fill="#608AF5"/>
<path d="M22.066 31.25H18.5937C18.1333 31.25 17.6917 31.436 17.3661 31.7671C17.0405 32.0982 16.8576 32.5473 16.8576 33.0155C16.8576 33.4838 17.0405 33.9329 17.3661 34.264C17.6917 34.5951 18.1333 34.7811 18.5937 34.7811H22.066C22.5264 34.7811 22.968 34.5951 23.2936 34.264C23.6192 33.9329 23.8021 33.4838 23.8021 33.0155C23.8021 32.5473 23.6192 32.0982 23.2936 31.7671C22.968 31.436 22.5264 31.25 22.066 31.25ZM51.1979 26.2359V26.1299C50.7005 25.5116 50.072 25.0158 49.3594 24.6794C48.6469 24.3431 47.8688 24.1751 47.0833 24.1879H33.316C32.0403 24.1762 30.8048 24.6411 29.8437 25.4944C28.9462 26.2986 28.3561 27.3988 28.1771 28.6017L26.6493 37.4294C26.5179 38.1917 26.5524 38.9741 26.7504 39.7214C26.9484 40.4688 27.305 41.1629 27.7951 41.755C28.2827 42.3451 28.8911 42.8198 29.5778 43.1461C30.2645 43.4724 31.0129 43.6423 31.7708 43.6441H45.5555C46.7938 43.6631 47.9983 43.2328 48.9528 42.4304C49.9073 41.628 50.5494 40.5059 50.7639 39.2655L52.2917 30.4379C52.412 29.6986 52.3767 28.9419 52.1882 28.2175C51.9996 27.4932 51.6621 26.8178 51.1979 26.2359ZM46.441 27.7189L40.5382 32.5918C40.1892 32.8779 39.7449 33.0155 39.2984 32.9761C38.8518 32.9366 38.4376 32.723 38.1424 32.38L34.0972 27.7189H46.441ZM47.2743 38.6123C47.204 39.0268 46.9905 39.4022 46.6722 39.6709C46.3539 39.9395 45.9518 40.0838 45.5382 40.0777H31.7708C31.5187 40.0755 31.2701 40.0176 31.0422 39.9078C30.8144 39.798 30.6127 39.6391 30.4514 39.4421C30.2896 39.2461 30.1717 39.0167 30.1057 38.7698C30.0398 38.5228 30.0274 38.2643 30.0694 38.012L31.4583 30.0141L35.5382 34.7105C36.4262 35.7369 37.6701 36.3744 39.0097 36.4895C40.3493 36.6047 41.6808 36.1886 42.7257 35.3284L48.6979 30.3672L47.2743 38.6123ZM23.8021 24.1879H18.5937C18.1333 24.1879 17.6917 24.3739 17.3661 24.705C17.0405 25.0361 16.8576 25.4851 16.8576 25.9534C16.8576 26.4216 17.0405 26.8707 17.3661 27.2018C17.6917 27.5329 18.1333 27.7189 18.5937 27.7189H23.8021C24.2625 27.7189 24.7041 27.5329 25.0297 27.2018C25.3553 26.8707 25.5382 26.4216 25.5382 25.9534C25.5382 25.4851 25.3553 25.0361 25.0297 24.705C24.7041 24.3739 24.2625 24.1879 23.8021 24.1879Z" fill="white"/>
</svg>
