<svg width="250" height="250" viewBox="0 0 250 250" fill="none" xmlns="http://www.w3.org/2000/svg">
<path fill-rule="evenodd" clip-rule="evenodd" d="M127.656 0.0561139C151.036 -1.06399 171.535 14.7897 191.276 29.276C212.34 44.7324 237.918 58.6746 245.111 86.2445C252.273 113.698 237.763 141.571 227.368 167.614C218.145 190.718 206.829 212.647 188.803 227.305C170.959 241.814 149.327 251.768 127.656 248.693C107.141 245.783 94.8575 222.433 76.5432 211.38C53.3736 197.397 19.7478 201.672 6.57456 175.621C-6.61662 149.535 2.22277 114.642 13.9802 87.6599C24.7881 62.8566 47.7514 50.6169 67.7653 35.1934C86.8554 20.4816 104.715 1.15523 127.656 0.0561139Z" fill="#608AF5"/>
<path d="M176.219 136.804C169.364 136.804 162.948 133.865 157.11 129.081L158.531 122.33L158.594 122.084C159.862 114.896 163.875 102.826 176.219 102.826C185.478 102.826 193.009 110.457 193.009 119.829C192.981 129.172 185.45 136.804 176.219 136.804ZM176.219 85.5972C160.447 85.5972 148.221 95.9766 143.254 113.043C135.66 101.508 129.92 87.6618 126.555 76H109.585V120.731C109.585 129.546 102.486 136.733 93.7776 136.733C85.0695 136.733 77.9776 129.546 77.9776 120.731V76H61.0002V120.731C60.9375 139.051 75.6647 154.089 93.7498 154.089C111.835 154.089 126.562 139.051 126.562 120.731V113.226C129.864 120.195 133.905 127.228 138.816 133.485L128.415 183H145.797L153.327 147.084C159.932 151.369 167.525 154.053 176.233 154.053C194.848 154.053 210 138.608 210 119.758C209.986 100.944 194.834 85.5972 176.219 85.5972Z" fill="white"/>
</svg>
