<?xml version="1.0" encoding="utf-8"?><svg viewBox="0 0 549 511" xmlns="http://www.w3.org/2000/svg" xmlns:xlink="http://www.w3.org/1999/xlink"><style>:root>svg{display:none}:root>svg:target{display:block}</style><svg fill="none" viewBox="0 0 70 68" id="Email" xmlns="http://www.w3.org/2000/svg"><path fill-rule="evenodd" clip-rule="evenodd" d="M35.744.015C42.29-.289 48.03 4.023 53.557 7.963c5.898 4.204 13.06 7.997 15.074 15.495 2.005 7.468-2.057 15.05-4.968 22.133-2.582 6.284-5.751 12.25-10.798 16.236-4.996 3.947-11.053 6.654-17.121 5.818-5.745-.792-9.184-7.143-14.312-10.15-6.487-3.803-15.903-2.64-19.591-9.726-3.694-7.096-1.219-16.586 2.073-23.925 3.027-6.747 9.456-10.076 15.06-14.271C24.32 5.57 29.32.314 35.744.015z" fill="#608AF5"/><path d="M22.066 31.25h-3.472c-.46 0-.902.186-1.228.517a1.78 1.78 0 00-.508 1.249c0 .468.183.917.508 1.248.326.331.767.517 1.228.517h3.472c.46 0 .902-.186 1.228-.517a1.78 1.78 0 00.508-1.248 1.78 1.78 0 00-.508-1.249 1.722 1.722 0 00-1.228-.517zm29.132-5.014v-.106a5.221 5.221 0 00-1.839-1.45 5.135 5.135 0 00-2.276-.492H33.316a5.157 5.157 0 00-3.472 1.306 5.198 5.198 0 00-1.667 3.108l-1.528 8.827a5.383 5.383 0 00.101 2.292 5.33 5.33 0 001.045 2.034 5.22 5.22 0 001.783 1.391 5.137 5.137 0 002.193.498h13.785a5.155 5.155 0 003.397-1.214 5.316 5.316 0 001.81-3.164l1.529-8.828c.12-.74.085-1.496-.104-2.22a5.332 5.332 0 00-.99-1.982zm-4.757 1.483l-5.903 4.873a1.717 1.717 0 01-2.396-.212l-4.045-4.661h12.344zm.833 10.893c-.07.415-.284.79-.602 1.059-.318.269-.72.413-1.134.407H31.771a1.712 1.712 0 01-1.32-.636 1.777 1.777 0 01-.382-1.43l1.39-7.998 4.08 4.697a5.178 5.178 0 003.47 1.779 5.15 5.15 0 003.717-1.162l5.972-4.96-1.424 8.244zM23.802 24.188h-5.208c-.46 0-.902.186-1.228.517a1.78 1.78 0 00-.508 1.248c0 .469.183.918.508 1.249.326.33.767.517 1.228.517h5.208c.46 0 .902-.186 1.228-.517a1.78 1.78 0 00.508-1.249 1.78 1.78 0 00-.508-1.248 1.722 1.722 0 00-1.228-.517z" fill="#fff"/></svg><svg fill="none" viewBox="0 0 70 68" id="Git" xmlns="http://www.w3.org/2000/svg"><path fill-rule="evenodd" clip-rule="evenodd" d="M35.744.015C42.29-.289 48.03 4.023 53.557 7.963c5.898 4.204 13.06 7.997 15.074 15.495 2.005 7.468-2.057 15.05-4.968 22.133-2.582 6.284-5.751 12.25-10.798 16.236-4.996 3.947-11.053 6.654-17.121 5.818-5.745-.792-9.184-7.143-14.312-10.15-6.487-3.803-15.903-2.64-19.591-9.726-3.694-7.096-1.219-16.586 2.073-23.925 3.027-6.747 9.456-10.076 15.06-14.271C24.32 5.57 29.32.314 35.744.015z" fill="#608AF5"/><path d="M34.583 16.678a17.19 17.19 0 00-11.25 4.21 17.731 17.731 0 00-5.886 10.618c-.66 4.139.148 8.38 2.282 11.968a17.42 17.42 0 009.364 7.61c.868.155 1.194-.375 1.194-.838 0-.42-.022-1.81-.022-3.288-4.362.816-5.49-1.082-5.838-2.075a6.415 6.415 0 00-1.78-2.494c-.607-.33-1.475-1.148-.021-1.17a3.438 3.438 0 011.552.573c.465.315.848.74 1.117 1.237.238.434.557.816.94 1.124a3.652 3.652 0 004.117.333 3.74 3.74 0 011.106-2.362c-3.862-.441-7.899-1.964-7.899-8.717a6.938 6.938 0 011.78-4.745 6.444 6.444 0 01.173-4.678s1.454-.464 4.774 1.81c2.841-.795 5.84-.795 8.681 0 3.32-2.296 4.774-1.81 4.774-1.81a6.444 6.444 0 01.174 4.678 6.897 6.897 0 011.78 4.745c0 6.775-4.059 8.276-7.922 8.717.415.427.734.94.936 1.504.202.563.283 1.164.236 1.763 0 2.361-.021 4.259-.021 4.855 0 .463.325 1.015 1.193.838a17.428 17.428 0 009.339-7.63 17.915 17.915 0 002.26-11.962 17.74 17.74 0 00-5.89-10.607 17.199 17.199 0 00-11.243-4.207z" fill="#fff"/></svg><svg fill="none" viewBox="0 0 70 68" id="Instagram" xmlns="http://www.w3.org/2000/svg"><path fill-rule="evenodd" clip-rule="evenodd" d="M35.744.015C42.29-.289 48.03 4.023 53.557 7.963c5.898 4.204 13.06 7.997 15.074 15.495 2.005 7.468-2.057 15.05-4.968 22.133-2.582 6.284-5.751 12.25-10.798 16.236-4.996 3.947-11.053 6.654-17.121 5.818-5.745-.792-9.184-7.143-14.312-10.15-6.487-3.803-15.903-2.64-19.591-9.726-3.694-7.096-1.219-16.586 2.073-23.925 3.027-6.747 9.456-10.076 15.06-14.271C24.32 5.57 29.32.314 35.744.015z" fill="#608AF5"/><path d="M43.854 22.352c-.412 0-.815.124-1.157.357-.343.233-.61.564-.768.95a2.152 2.152 0 00.452 2.31c.291.296.663.498 1.067.58.404.081.823.04 1.203-.121.381-.16.706-.432.935-.78a2.144 2.144 0 00-.259-2.676c-.39-.397-.92-.62-1.473-.62zm7.986 4.272a13.604 13.604 0 00-.798-4.29 8.738 8.738 0 00-2.014-3.125 8.148 8.148 0 00-3.073-2.03c-1.35-.519-2.776-.8-4.219-.83-1.84-.106-2.43-.106-7.153-.106-4.722 0-5.312 0-7.152.106-1.443.03-2.87.311-4.22.83a8.285 8.285 0 00-3.072 2.03 8.313 8.313 0 00-1.997 3.125 13.08 13.08 0 00-.816 4.29c-.104 1.872-.104 2.472-.104 7.274 0 4.803 0 5.403.104 7.274a13.08 13.08 0 00.816 4.29 8.313 8.313 0 001.997 3.126 8.285 8.285 0 003.073 2.03c1.35.519 2.776.8 4.219.83 1.84.106 2.43.106 7.152.106 4.723 0 5.313 0 7.153-.106 1.443-.03 2.87-.311 4.219-.83a8.148 8.148 0 003.073-2.03 8.577 8.577 0 002.014-3.125c.495-1.376.764-2.826.798-4.29 0-1.872.104-2.472.104-7.275 0-4.802 0-5.402-.104-7.274zm-3.125 14.337a10.056 10.056 0 01-.59 3.283 5.41 5.41 0 01-1.302 2.03 5.53 5.53 0 01-1.997 1.325 9.595 9.595 0 01-3.229.6c-1.736.089-2.378.106-6.944.106s-5.208 0-6.945-.106a9.795 9.795 0 01-3.368-.53 5.674 5.674 0 01-1.91-1.324 5.307 5.307 0 01-1.284-2.03 9.925 9.925 0 01-.695-3.354c0-1.766-.104-2.42-.104-7.063s0-5.296.104-7.062a9.931 9.931 0 01.608-3.354 5.296 5.296 0 011.372-1.942 5.457 5.457 0 011.91-1.413 9.801 9.801 0 013.298-.6c1.736 0 2.378-.106 6.944-.106s5.209 0 6.945.106a9.598 9.598 0 013.229.6 5.31 5.31 0 012.066 1.413 5.408 5.408 0 011.302 1.942c.386 1.075.586 2.21.59 3.354.087 1.766.104 2.419.104 7.062 0 4.644-.017 5.297-.104 7.063zM34.583 24.84a8.801 8.801 0 00-4.943 1.535 9.027 9.027 0 00-3.273 4.069 9.2 9.2 0 00-.5 5.231 9.105 9.105 0 002.442 4.633 8.86 8.86 0 004.56 2.474 8.768 8.768 0 005.144-.519 8.941 8.941 0 003.994-3.336 9.167 9.167 0 001.5-5.03 9.172 9.172 0 00-.675-3.473 9.05 9.05 0 00-1.935-2.942A8.88 8.88 0 0038 25.52a8.76 8.76 0 00-3.417-.68zm0 14.937a5.713 5.713 0 01-3.212-.991 5.858 5.858 0 01-2.129-2.639 5.971 5.971 0 01-.329-3.397 5.91 5.91 0 011.582-3.01 5.752 5.752 0 012.96-1.609 5.692 5.692 0 013.34.335 5.803 5.803 0 012.595 2.165 5.965 5.965 0 01.534 5.516 5.886 5.886 0 01-1.253 1.908 5.775 5.775 0 01-1.875 1.274 5.697 5.697 0 01-2.213.448z" fill="#fff"/></svg><svg fill="none" viewBox="0 0 70 68" id="UpWork" xmlns="http://www.w3.org/2000/svg"><path fill-rule="evenodd" clip-rule="evenodd" d="M35.744.015C42.29-.289 48.03 4.023 53.557 7.963c5.898 4.204 13.06 7.997 15.074 15.495 2.005 7.468-2.057 15.05-4.968 22.133-2.582 6.284-5.751 12.25-10.798 16.236-4.996 3.947-11.053 6.654-17.121 5.818-5.745-.792-9.184-7.143-14.312-10.15-6.487-3.803-15.903-2.64-19.591-9.726-3.694-7.096-1.219-16.586 2.073-23.925 3.027-6.747 9.456-10.076 15.06-14.271C24.32 5.57 29.32.314 35.744.015z" fill="#608AF5"/><path d="M22.066 31.25h-3.472c-.46 0-.902.186-1.228.517a1.78 1.78 0 00-.508 1.249c0 .468.183.917.508 1.248.326.331.767.517 1.228.517h3.472c.46 0 .902-.186 1.228-.517a1.78 1.78 0 00.508-1.248 1.78 1.78 0 00-.508-1.249 1.722 1.722 0 00-1.228-.517zm29.132-5.014v-.106a5.221 5.221 0 00-1.839-1.45 5.135 5.135 0 00-2.276-.492H33.316a5.157 5.157 0 00-3.472 1.306 5.198 5.198 0 00-1.667 3.108l-1.528 8.827a5.383 5.383 0 00.101 2.292 5.33 5.33 0 001.045 2.034 5.22 5.22 0 001.783 1.391 5.137 5.137 0 002.193.498h13.785a5.155 5.155 0 003.397-1.214 5.316 5.316 0 001.81-3.164l1.529-8.828c.12-.74.085-1.496-.104-2.22a5.332 5.332 0 00-.99-1.982zm-4.757 1.483l-5.903 4.873a1.717 1.717 0 01-2.396-.212l-4.045-4.661h12.344zm.833 10.893c-.07.415-.284.79-.602 1.059-.318.269-.72.413-1.134.407H31.771a1.712 1.712 0 01-1.32-.636 1.777 1.777 0 01-.382-1.43l1.39-7.998 4.08 4.697a5.178 5.178 0 003.47 1.779 5.15 5.15 0 003.717-1.162l5.972-4.96-1.424 8.244zM23.802 24.188h-5.208c-.46 0-.902.186-1.228.517a1.78 1.78 0 00-.508 1.248c0 .469.183.918.508 1.249.326.33.767.517 1.228.517h5.208c.46 0 .902-.186 1.228-.517a1.78 1.78 0 00.508-1.249 1.78 1.78 0 00-.508-1.248 1.722 1.722 0 00-1.228-.517z" fill="#fff"/></svg><svg fill="none" viewBox="0 0 549 511" id="main_svg" xmlns="http://www.w3.org/2000/svg"><g clip-path="url(#eclip0_103_131)"><path d="M495.031 265.933c.071 63.23-22.766 124.028-63.713 169.613a217.224 217.224 0 01-7.605 8.098 233.31 233.31 0 01-12.291 11.637c-39.574 34.891-88.976 54.498-140.239 55.657a214.28 214.28 0 01-5.143.062c-40.883 0-92.304-23.369-138.969-55.719a471.137 471.137 0 01-11.479-8.216 352.294 352.294 0 01-5.292-3.945 478.804 478.804 0 01-51.124-44.697 346.416 346.416 0 01-29.488-33.743c-35.856-47.332-43.764-89.98 7.354-98.747a521.4 521.4 0 0017.622-3.318 463.35 463.35 0 0023.686-5.498c10.158-2.641 19.702-5.506 28.631-8.594a343.495 343.495 0 008.804-3.166c42.372-15.927 70.732-36.696 90.036-59.231a156.72 156.72 0 009.055-11.581 164.218 164.218 0 0011.492-18.706 182.057 182.057 0 0011.866-28.315l.174-.538c15.36-47.415 10.687-91.394 27.632-106.114 72.433-62.928 162.61 26.687 204.937 132.366a378.587 378.587 0 016.02 16.072 328.996 328.996 0 012.443 7.236 346.387 346.387 0 015.613 18.941 326.543 326.543 0 011.844 7.235 319.02 319.02 0 011.779 7.788c4.118 18.989 6.355 37.716 6.355 55.423z" fill="#F2F2F2"/><path d="M271.183 510.938a214.28 214.28 0 01-5.143.062c-40.883 0-92.304-23.369-138.969-55.719a471.137 471.137 0 01-11.479-8.216l3.326-21.658 100.683-14.306 50.532 41.352 1.05 58.485z" fill="#2F2E41"/><path d="M276.03 124.192h-14.347c-.445.001-.871.19-1.185.526a1.86 1.86 0 00-.491 1.268v15.361c0 .235.044.468.128.685.084.217.208.414.364.58.155.166.34.297.543.387.203.089.421.135.641.134h14.347c.443.001.869-.187 1.183-.522.314-.335.491-.79.493-1.264v-15.361a1.862 1.862 0 00-.492-1.267 1.63 1.63 0 00-1.184-.527z" fill="#fff"/><path d="M276.03 150.369h-14.347c-.445 0-.871.189-1.185.526a1.858 1.858 0 00-.491 1.267v15.361c0 .236.044.468.128.685.084.218.208.415.364.581.155.166.34.297.543.386.203.09.421.136.641.135h14.347c.443 0 .869-.188 1.183-.523.314-.334.491-.789.493-1.264v-15.361a1.862 1.862 0 00-.492-1.266 1.627 1.627 0 00-1.184-.527zM276.03 176.546h-14.347c-.445 0-.871.189-1.185.525a1.86 1.86 0 00-.491 1.268v15.354a1.869 1.869 0 00.49 1.269c.155.167.34.299.544.389.203.09.421.136.642.136h14.347c.444-.001.871-.19 1.185-.526a1.86 1.86 0 00.491-1.268v-15.354a1.864 1.864 0 00-.492-1.267 1.626 1.626 0 00-1.184-.526zM277.68 204.198a1.83 1.83 0 00-.577-1.056 1.621 1.621 0 00-1.073-.42h-14.347c-.445.001-.871.19-1.185.526a1.86 1.86 0 00-.491 1.268v15.354a1.869 1.869 0 00.49 1.269c.155.167.34.299.544.389.203.09.421.136.642.135h14.347c.444 0 .871-.189 1.185-.525a1.86 1.86 0 00.491-1.268v-15.354a1.692 1.692 0 00-.026-.318zM276.681 229.037a1.612 1.612 0 00-.651-.138h-14.347c-.221 0-.439.046-.642.136-.204.09-.389.222-.544.388a1.801 1.801 0 00-.363.583 1.884 1.884 0 00-.127.686v15.355c-.001.235.042.469.125.687.084.218.208.416.364.583.155.167.34.299.544.389.204.089.422.135.643.134h14.347c.444 0 .871-.189 1.185-.525.314-.337.491-.793.491-1.268v-15.355a1.89 1.89 0 00-.281-.992 1.717 1.717 0 00-.744-.663zM306.169 124.192h-14.348c-.444.001-.87.19-1.184.526a1.86 1.86 0 00-.492 1.268v15.361c.001.235.044.468.129.685.084.217.207.414.363.58.156.166.34.297.544.387.203.089.42.135.64.134h14.348c.443.001.868-.187 1.182-.522.315-.335.492-.79.493-1.264v-15.361a1.862 1.862 0 00-.492-1.267 1.629 1.629 0 00-1.183-.527z" fill="#E6E6E6"/><path d="M306.169 150.369h-14.348c-.444 0-.87.189-1.185.526-.314.336-.49.792-.491 1.267v15.361c.001.236.044.468.129.685.084.218.207.415.363.581.156.166.34.297.544.386.203.09.42.136.64.135h14.348c.443 0 .868-.188 1.183-.523.314-.334.491-.789.492-1.264v-15.361a1.862 1.862 0 00-.492-1.266 1.625 1.625 0 00-1.183-.527zM306.169 176.546h-14.348c-.444 0-.87.189-1.185.525-.314.336-.49.793-.491 1.268v15.354c0 .236.043.469.127.687.084.218.208.416.363.582.156.167.341.299.544.389.204.09.422.136.642.136h14.348c.444-.001.87-.19 1.184-.526.315-.336.491-.792.491-1.268v-15.354a1.864 1.864 0 00-.492-1.267 1.624 1.624 0 00-1.183-.526zM306.169 202.722h-14.348a1.6 1.6 0 00-.978.34 1.78 1.78 0 00-.607.888c-.06.182-.09.373-.091.566v15.354c0 .236.043.469.127.687.084.218.208.415.363.582.156.167.341.299.544.389.204.09.422.136.642.135h14.348c.444 0 .87-.189 1.184-.525.315-.337.491-.793.491-1.268v-15.354a1.862 1.862 0 00-.492-1.267 1.629 1.629 0 00-1.183-.527z" fill="#608AF5"/><path d="M306.169 228.899h-14.348c-.22 0-.438.046-.642.136-.203.09-.388.222-.544.388a1.819 1.819 0 00-.363.583 1.905 1.905 0 00-.127.686v15.355c0 .235.043.469.127.686.084.218.208.416.363.583.156.166.341.298.544.388.204.09.422.137.642.136h14.348c.444 0 .87-.189 1.184-.525.315-.337.491-.793.491-1.268v-15.355c0-.475-.176-.931-.491-1.268a1.621 1.621 0 00-1.184-.525z" fill="#E6E6E6"/><path d="M336.307 124.192H321.96c-.445.001-.871.19-1.185.526a1.86 1.86 0 00-.491 1.268v15.361c0 .235.044.468.128.685.085.217.208.414.364.58.155.166.34.297.543.387.203.089.421.135.641.134h14.347c.444.001.869-.187 1.183-.522.314-.335.491-.79.493-1.264v-15.361a1.862 1.862 0 00-.492-1.267 1.63 1.63 0 00-1.184-.527zM336.307 150.369H321.96c-.445 0-.871.189-1.185.526a1.858 1.858 0 00-.491 1.267v15.361c0 .236.044.468.128.685.085.218.208.415.364.581.155.166.34.297.543.386.203.09.421.136.641.135h14.347a1.62 1.62 0 001.183-.523c.314-.334.491-.789.493-1.264v-15.361a1.862 1.862 0 00-.492-1.266 1.627 1.627 0 00-1.184-.527z" fill="#608AF5"/><path d="M336.307 176.546H321.96c-.445 0-.871.189-1.185.525a1.86 1.86 0 00-.491 1.268v15.354c0 .236.043.469.127.687.084.218.207.416.363.582.156.167.341.299.544.389.204.09.422.136.642.136h14.347c.445-.001.871-.19 1.185-.526a1.86 1.86 0 00.491-1.268v-15.354a1.864 1.864 0 00-.492-1.267 1.626 1.626 0 00-1.184-.526z" fill="#E6E6E6"/><path d="M336.307 202.722H321.96c-.445.001-.871.19-1.185.526a1.86 1.86 0 00-.491 1.268v15.354c0 .236.043.469.127.687.084.218.207.415.363.582.156.167.341.299.544.389.204.09.422.136.642.135h14.347c.445 0 .871-.189 1.185-.525a1.86 1.86 0 00.491-1.268v-15.354a1.862 1.862 0 00-.492-1.267 1.63 1.63 0 00-1.184-.527zM336.307 228.899H321.96c-.22 0-.438.046-.642.136-.203.09-.388.222-.544.388a1.801 1.801 0 00-.363.583 1.905 1.905 0 00-.127.686v15.355c0 .235.043.469.127.686.084.218.207.416.363.583.156.166.341.298.544.388.204.09.422.137.642.136h14.347c.445 0 .871-.189 1.185-.525.314-.337.491-.793.491-1.268v-15.355c0-.475-.177-.931-.491-1.268a1.622 1.622 0 00-1.185-.525zM366.446 124.192h-14.348c-.444.001-.87.19-1.184.526a1.86 1.86 0 00-.492 1.268v15.361c.001.235.044.468.129.685.084.217.208.414.363.58.156.166.341.297.544.387.203.089.421.135.64.134h14.348a1.62 1.62 0 001.183-.522c.314-.335.491-.79.493-1.264v-15.361a1.868 1.868 0 00-.493-1.267 1.629 1.629 0 00-1.183-.527z" fill="#608AF5"/><path d="M366.446 150.369h-14.348c-.444 0-.87.189-1.184.526a1.86 1.86 0 00-.492 1.267v15.361c.001.236.044.468.129.685.084.218.208.415.363.581.156.166.341.297.544.386.203.09.421.136.64.135h14.348c.443 0 .868-.188 1.183-.523.314-.334.491-.789.493-1.264v-15.361a1.867 1.867 0 00-.493-1.266 1.625 1.625 0 00-1.183-.527zM366.446 176.546h-14.348c-.444 0-.87.189-1.184.525a1.862 1.862 0 00-.492 1.268v15.354c0 .236.043.469.127.687.084.218.208.416.363.582.156.167.341.299.544.389.204.09.422.136.642.136h14.348c.444-.001.87-.19 1.184-.526a1.86 1.86 0 00.492-1.268v-15.354a1.87 1.87 0 00-.493-1.267 1.624 1.624 0 00-1.183-.526z" fill="#fff"/><path d="M366.446 202.722h-14.348c-.444.001-.87.19-1.184.526a1.86 1.86 0 00-.492 1.268v15.354c0 .236.043.469.127.687.084.218.208.415.363.582.156.167.341.299.544.389.204.09.422.136.642.135h14.348c.444 0 .87-.189 1.184-.525.315-.336.491-.793.492-1.268v-15.354a1.868 1.868 0 00-.493-1.267 1.629 1.629 0 00-1.183-.527z" fill="#E6E6E6"/><path d="M366.446 228.899h-14.348c-.22 0-.438.046-.642.136-.203.09-.388.222-.544.388a1.819 1.819 0 00-.363.583 1.905 1.905 0 00-.127.686v15.355c0 .235.043.469.127.686.084.218.208.416.363.583.156.166.341.299.544.388.204.09.422.137.642.136h14.348c.444 0 .87-.189 1.184-.525.315-.337.491-.793.492-1.268v-15.355a1.864 1.864 0 00-.492-1.268 1.621 1.621 0 00-1.184-.525z" fill="#608AF5"/><path d="M396.584 124.192H382.23a1.625 1.625 0 00-1.181.528 1.863 1.863 0 00-.488 1.266v15.361c0 .474.176.928.489 1.263.313.335.738.523 1.18.523h14.354c.444.001.869-.187 1.183-.522.314-.335.492-.79.493-1.264v-15.361a1.862 1.862 0 00-.492-1.267 1.63 1.63 0 00-1.184-.527zM396.584 150.369H382.23a1.622 1.622 0 00-1.181.528 1.862 1.862 0 00-.488 1.265v15.361c0 .474.176.929.489 1.264.313.335.738.523 1.18.523h14.354a1.62 1.62 0 001.183-.523c.314-.335.492-.789.493-1.264v-15.361a1.862 1.862 0 00-.492-1.266 1.627 1.627 0 00-1.184-.527zM396.584 176.546H382.23a1.62 1.62 0 00-1.181.527 1.865 1.865 0 00-.488 1.266v15.354c-.001.235.042.468.126.686.083.217.206.415.361.581.155.167.34.299.542.389.203.091.421.137.64.138h14.354c.445-.001.871-.19 1.185-.526a1.86 1.86 0 00.491-1.268v-15.354a1.864 1.864 0 00-.492-1.267 1.626 1.626 0 00-1.184-.526z" fill="#fff"/><path d="M396.584 202.722H382.23a1.625 1.625 0 00-1.181.528 1.863 1.863 0 00-.488 1.266v15.354a1.878 1.878 0 00.487 1.267c.155.167.34.299.542.389.203.09.421.137.64.137h14.354c.445 0 .871-.189 1.185-.525a1.86 1.86 0 00.491-1.268v-15.354a1.862 1.862 0 00-.492-1.267 1.63 1.63 0 00-1.184-.527z" fill="#608AF5"/><path d="M396.584 228.899H382.23a1.58 1.58 0 00-.64.137 1.68 1.68 0 00-.542.389 1.878 1.878 0 00-.487 1.267v15.355a1.878 1.878 0 00.487 1.267c.155.166.34.299.542.389.203.09.421.137.64.137h14.354c.445 0 .871-.189 1.185-.525.314-.337.491-.793.491-1.268v-15.355c0-.475-.177-.931-.491-1.268a1.622 1.622 0 00-1.185-.525z" fill="#E6E6E6"/><path d="M426.723 124.192h-14.354a1.625 1.625 0 00-1.181.528 1.853 1.853 0 00-.488 1.266v15.361c0 .474.176.928.489 1.263.313.335.737.523 1.18.523h14.354c.443 0 .869-.187 1.183-.522.314-.335.491-.79.493-1.264v-15.361a1.868 1.868 0 00-.493-1.267 1.629 1.629 0 00-1.183-.527zM426.723 150.369h-14.354a1.622 1.622 0 00-1.181.528 1.853 1.853 0 00-.488 1.265v15.361c0 .474.176.929.489 1.264.313.335.737.523 1.18.523h14.354c.443 0 .869-.188 1.183-.523a1.86 1.86 0 00.493-1.264v-15.361a1.867 1.867 0 00-.493-1.266 1.625 1.625 0 00-1.183-.527z" fill="#fff"/><path d="M426.723 176.546h-14.354a1.62 1.62 0 00-1.181.527 1.855 1.855 0 00-.488 1.266v15.354c-.001.235.042.468.125.686.084.217.207.415.362.581.155.167.339.299.542.389.203.091.42.137.64.138h14.354a1.63 1.63 0 001.185-.526c.314-.336.49-.792.491-1.268v-15.354a1.87 1.87 0 00-.493-1.267 1.624 1.624 0 00-1.183-.526z" fill="#608AF5"/><path d="M426.723 202.722h-14.354a1.625 1.625 0 00-1.181.528 1.853 1.853 0 00-.488 1.266v15.354c-.001.235.042.468.125.685a1.8 1.8 0 00.362.582c.155.167.339.299.542.389.203.09.42.137.64.137h14.354c.444 0 .87-.189 1.185-.525.314-.336.49-.792.491-1.268v-15.354a1.87 1.87 0 00-.493-1.267 1.629 1.629 0 00-1.183-.527z" fill="#E6E6E6"/><path d="M426.723 228.899h-14.354c-.22 0-.437.047-.64.137a1.67 1.67 0 00-.542.389 1.812 1.812 0 00-.362.582c-.083.217-.126.45-.125.685v15.355c-.001.235.042.468.125.685.084.218.207.415.362.582.155.166.339.299.542.389.203.09.42.137.64.137h14.354c.444 0 .87-.189 1.185-.526.314-.336.49-.792.491-1.267v-15.355a1.863 1.863 0 00-.491-1.267 1.622 1.622 0 00-1.185-.526z" fill="#fff"/><path d="M456.861 124.192h-14.354a1.621 1.621 0 00-1.18.528 1.859 1.859 0 00-.489 1.266v15.361c0 .474.176.928.489 1.263.313.335.738.523 1.18.523h14.354a1.62 1.62 0 001.183-.522c.314-.335.492-.79.493-1.264v-15.361a1.862 1.862 0 00-.492-1.267 1.63 1.63 0 00-1.184-.527zM456.861 150.369h-14.354a1.622 1.622 0 00-1.181.528 1.862 1.862 0 00-.488 1.265v15.361c0 .474.176.929.489 1.264.313.335.738.523 1.18.523h14.354a1.62 1.62 0 001.183-.523c.314-.335.492-.789.493-1.264v-15.361a1.862 1.862 0 00-.492-1.266 1.627 1.627 0 00-1.184-.527z" fill="#608AF5"/><path d="M456.861 176.546h-14.353a1.621 1.621 0 00-1.182.527 1.865 1.865 0 00-.488 1.266v15.354c0 .235.042.468.126.686.083.217.206.415.361.581.155.167.34.299.542.389.203.091.421.137.641.138h14.353c.445-.001.871-.19 1.185-.526a1.86 1.86 0 00.491-1.268v-15.354a1.864 1.864 0 00-.492-1.267 1.626 1.626 0 00-1.184-.526z" fill="#E6E6E6"/><path d="M456.861 202.722h-14.353a1.622 1.622 0 00-1.181.528 1.859 1.859 0 00-.489 1.266v15.354c0 .235.042.468.126.685.083.218.206.416.361.582.155.167.34.299.542.389.203.09.421.137.641.137h14.353c.445 0 .871-.189 1.185-.525a1.86 1.86 0 00.491-1.268v-15.354a1.864 1.864 0 00-.492-1.267 1.63 1.63 0 00-1.184-.527z" fill="#fff"/><path d="M456.861 228.899h-14.353c-.22 0-.438.047-.641.137a1.68 1.68 0 00-.542.389 1.792 1.792 0 00-.361.582 1.9 1.9 0 00-.126.685v15.355c0 .235.042.468.126.685.083.218.206.415.361.582.155.166.34.299.542.389.203.09.421.137.641.137h14.353c.445 0 .871-.189 1.185-.526.314-.336.491-.792.491-1.267v-15.355c0-.475-.177-.931-.491-1.267a1.619 1.619 0 00-1.185-.526zM487 124.192h-14.354a1.625 1.625 0 00-1.181.528 1.858 1.858 0 00-.488 1.266v15.361c0 .474.176.928.489 1.263.313.335.737.523 1.18.523H487c.443 0 .869-.187 1.183-.522.314-.335.491-.79.493-1.264v-15.361a1.868 1.868 0 00-.493-1.267 1.629 1.629 0 00-1.183-.527zM487 150.369h-14.354a1.622 1.622 0 00-1.181.528 1.857 1.857 0 00-.488 1.265v15.361c0 .474.176.929.489 1.264.313.335.737.523 1.18.523H487c.443 0 .869-.188 1.183-.523a1.86 1.86 0 00.493-1.264v-15.361a1.867 1.867 0 00-.493-1.266 1.625 1.625 0 00-1.183-.527z" fill="#608AF5"/><path d="M487 176.546h-14.354a1.62 1.62 0 00-1.181.527 1.86 1.86 0 00-.488 1.266v15.354c-.001.235.042.468.125.686.084.217.207.415.362.581.155.167.339.299.542.389.203.091.42.137.64.138H487a1.63 1.63 0 001.185-.526c.314-.336.49-.792.491-1.268v-15.354a1.872 1.872 0 00-.493-1.267 1.624 1.624 0 00-1.183-.526z" fill="#E6E6E6"/><path d="M487 202.722h-14.354a1.625 1.625 0 00-1.181.528 1.858 1.858 0 00-.488 1.266v15.354c-.001.235.042.468.125.685a1.8 1.8 0 00.362.582c.155.167.339.299.542.389.203.09.42.137.64.137H487c.444 0 .87-.189 1.185-.525a1.86 1.86 0 00.491-1.268v-15.354a1.87 1.87 0 00-.493-1.267 1.629 1.629 0 00-1.183-.527zM487 228.899h-14.354c-.22 0-.437.047-.64.137a1.67 1.67 0 00-.542.389 1.812 1.812 0 00-.362.582c-.083.217-.126.45-.125.685v15.355c-.001.235.042.468.125.685.084.218.207.415.362.582.155.166.339.299.542.389.203.09.42.137.64.137H487c.444 0 .87-.189 1.185-.526.314-.336.491-.792.491-1.267v-15.355c0-.475-.177-.931-.491-1.267a1.622 1.622 0 00-1.185-.526z" fill="#608AF5"/><path d="M517.139 124.192h-14.354a1.624 1.624 0 00-1.181.528 1.859 1.859 0 00-.489 1.266v15.361c0 .474.176.928.489 1.263.313.335.738.523 1.181.523h14.354a1.62 1.62 0 001.182-.522c.314-.335.492-.79.493-1.264v-15.361a1.862 1.862 0 00-.492-1.267 1.629 1.629 0 00-1.183-.527z" fill="#E6E6E6"/><path d="M517.139 150.369h-14.354a1.62 1.62 0 00-1.181.528 1.858 1.858 0 00-.489 1.265v15.361c0 .474.176.929.489 1.264.313.335.738.523 1.181.523h14.354a1.62 1.62 0 001.182-.523c.314-.335.492-.789.493-1.264v-15.361a1.862 1.862 0 00-.492-1.266 1.625 1.625 0 00-1.183-.527zM517.139 176.546h-14.354a1.619 1.619 0 00-1.181.527 1.86 1.86 0 00-.489 1.266v15.354c0 .235.042.468.126.686.084.217.206.415.362.581.155.167.339.299.542.389.203.091.42.137.64.138h14.354c.444-.001.87-.19 1.184-.526a1.86 1.86 0 00.491-1.268v-15.354a1.866 1.866 0 00-.492-1.267 1.624 1.624 0 00-1.183-.526zM517.139 202.722h-14.354a1.624 1.624 0 00-1.181.528 1.859 1.859 0 00-.489 1.266v15.354c0 .235.042.468.126.685.084.218.206.416.362.582.155.167.339.299.542.389.202.09.42.137.64.137h14.354c.444 0 .87-.189 1.184-.525a1.86 1.86 0 00.491-1.268v-15.354a1.864 1.864 0 00-.492-1.267 1.629 1.629 0 00-1.183-.527z" fill="#608AF5"/><path d="M517.139 228.899h-14.354c-.22 0-.438.047-.64.137a1.67 1.67 0 00-.542.389 1.794 1.794 0 00-.362.582 1.9 1.9 0 00-.126.685v15.355c0 .235.042.468.126.685.084.218.206.415.362.582.155.166.339.299.542.389.202.09.42.137.64.137h14.354c.444 0 .87-.189 1.184-.526.314-.336.491-.792.491-1.267v-15.355c0-.475-.177-.931-.491-1.267a1.618 1.618 0 00-1.184-.526zM547.277 124.192h-14.354a1.625 1.625 0 00-1.181.528 1.858 1.858 0 00-.488 1.266v15.361c0 .474.176.928.489 1.263.313.335.737.523 1.18.523h14.354c.443 0 .869-.187 1.183-.522.314-.335.491-.79.493-1.264v-15.361a1.862 1.862 0 00-.492-1.267 1.63 1.63 0 00-1.184-.527zM547.277 150.369h-14.354a1.622 1.622 0 00-1.181.528 1.857 1.857 0 00-.488 1.265v15.361c0 .474.176.929.489 1.264.313.335.737.523 1.18.523h14.354c.443 0 .869-.188 1.183-.523a1.86 1.86 0 00.493-1.264v-15.361a1.862 1.862 0 00-.492-1.266 1.627 1.627 0 00-1.184-.527z" fill="#E6E6E6"/><path d="M547.277 176.546h-14.354a1.62 1.62 0 00-1.181.527 1.86 1.86 0 00-.488 1.266v15.354c-.001.235.042.468.126.686.083.217.206.415.361.581.155.167.339.299.542.389.203.091.421.137.64.138h14.354c.444-.001.871-.19 1.185-.526a1.86 1.86 0 00.491-1.268v-15.354a1.866 1.866 0 00-.492-1.267 1.626 1.626 0 00-1.184-.526z" fill="#608AF5"/><path d="M547.277 202.722h-14.354a1.625 1.625 0 00-1.181.528 1.858 1.858 0 00-.488 1.266v15.354a1.878 1.878 0 00.487 1.267c.155.167.339.299.542.389.203.09.42.137.64.137h14.354c.444 0 .871-.189 1.185-.525a1.86 1.86 0 00.491-1.268v-15.354a1.864 1.864 0 00-.492-1.267 1.63 1.63 0 00-1.184-.527zM547.277 228.899h-14.354c-.22 0-.437.047-.64.137a1.67 1.67 0 00-.542.389 1.878 1.878 0 00-.487 1.267v15.355a1.878 1.878 0 00.487 1.267c.155.166.339.299.542.389.203.09.42.137.64.137h14.354a1.62 1.62 0 001.185-.526c.314-.336.491-.792.491-1.267v-15.355c0-.475-.177-.931-.491-1.267a1.62 1.62 0 00-1.185-.526z" fill="#E6E6E6"/><path d="M217.375 455.28h-.399l.341-.047.058.047z" fill="#2F2E41"/><path d="M183.034 169.031c24.32 0 44.036-21.099 44.036-47.126 0-26.028-19.716-47.127-44.036-47.127-24.321 0-44.036 21.1-44.036 47.127s19.715 47.126 44.036 47.126z" fill="#FFB6B6"/><path d="M221.598 87.352s11.517-23.563-13.822-25.705c0 0-21.601-20.97-43.619-3.834 0 0-12.01 0-18.578 14.545 0 0-9.445-3.834-11.521 6.426 0 0-6.912 21.421 0 40.7 6.912 19.279 9.207 21.421 9.207 21.421s-11.357-40.419 16.288-42.561c27.645-2.143 58.58-20.631 60.884 2.932 2.303 23.563 5.77 29.369 5.77 29.369s21.882-33.653-4.609-43.293z" fill="#2F2E41"/><path d="M296.945 238.045l-.142.8-1.592 8.995-11.002 62.217-.651 3.663-1.366 7.746-1.869 10.567-4.145 23.418-1.186 6.711-.444 2.518-.155.883-1.231 6.946-.374 2.096-3.003 23.818-2.624 20.755 8.779 9.395-5.234 5.601-3.435 21.058.006.049H127.071A489.272 489.272 0 01110.3 443.12l1.154-9.243s3.97-16.506 2.301-18.479c-1.663-1.972-5.311-5.497-5.311-5.497l4.595-11.478.639-1.593-1.07-23.749-.026-.572-.355-7.829-.045-1.007-.071-1.511-1.36-30.129-.025-.497-.413-9.132-.387-8.684-.167-3.663-1.657-36.647-1.121-24.887-.98-21.666 3.938-1.428 42.121-15.319 17.447-24.273 36.314.289 17.776.145 29.662 29.44 6.748 3.448.052.028 4.84 2.476 12.272 6.27 12.975 6.636 6.658 3.4.141.076z" fill="#CACACA"/><path d="M174.2 384.58a18.353 18.353 0 01-8.363 1.364 18.584 18.584 0 01-8.117-2.551c-2.499-1.475-4.665-3.519-6.346-5.987a21.64 21.64 0 01-3.383-8.297L79.31 358.681l23.875-28.903 61.56 14.334c4.766-.651 9.59.592 13.557 3.493 3.967 2.901 6.802 7.259 7.967 12.247 1.165 4.988.581 10.261-1.644 14.818-2.224 4.558-5.934 8.084-10.425 9.91z" fill="#FFB6B6"/><path d="M143.578 332.033c-1.273-1.726-3.074-2.916-5.086-3.359l-28.179-6.27-2.894-.642a11.815 11.815 0 01-4.662-2.205 12.79 12.79 0 01-3.414-4.051 13.89 13.89 0 01-1.58-5.449c-.133-1.744.062-3.498.575-5.159l9.764-31.488 6.336-20.431a30.619 30.619 0 001.347-7.622c.353-7.179-1.722-14.253-5.846-19.928-3.625-4.987-8.653-8.595-14.342-10.289a25.822 25.822 0 00-17.247.881c-.16.062-.328.131-.49.2-3.952 1.689-7.484 4.339-10.315 7.74-2.831 3.401-4.885 7.46-5.998 11.856l-6.883 26.798-14.2 55.243a42.558 42.558 0 00-.841 16.998c.866 5.665 2.867 11.062 5.863 15.823 2.997 4.761 6.92 8.772 11.5 11.76 4.579 2.988 9.708 4.882 15.035 5.552l40.587 5.09 18.781 2.359c2.172.279 4.363-.327 6.135-1.699 1.773-1.371 2.998-3.407 3.43-5.702.031-.125.054-.252.071-.38l.451-2.979 3.823-25.094.038-.255a9.937 9.937 0 00-.157-3.849 9.586 9.586 0 00-1.602-3.449z" fill="#CACACA"/><path d="M217.947 385.385c2.78.69 5.668.72 8.459.088a18.947 18.947 0 007.7-3.751c2.279-1.837 4.155-4.187 5.494-6.884a22.022 22.022 0 002.256-8.725l66.621-20.689-27.446-25.011-59.056 23.481c-4.804.075-9.416 2.033-12.961 5.504-3.545 3.471-5.777 8.213-6.274 13.327-.496 5.114.778 10.246 3.58 14.422 2.803 4.177 6.94 7.108 11.627 8.238z" fill="#FFB6B6"/><path d="M341.554 299.145l-31.686-78.04c-2.591-6.407-7.22-11.625-13.065-14.727a26.727 26.727 0 00-5.659-2.207 14.27 14.27 0 00-.908-.221 25.436 25.436 0 00-12.556.248c-3.757 1.033-7.267 2.902-10.304 5.484-3.036 2.583-5.53 5.822-7.318 9.505a.812.812 0 00-.051.097 31.407 31.407 0 00-3.101 13.368 31.478 31.478 0 002.862 13.429l.394.842 22.391 48.125a13.78 13.78 0 011.264 5.282 13.853 13.853 0 01-.865 5.373 13.126 13.126 0 01-2.843 4.525 12.098 12.098 0 01-4.324 2.885l-1.573.607-28.282 10.932c-2.122.811-3.868 2.471-4.869 4.631a9.903 9.903 0 00-.5 6.951l.071.241 7.928 27.149c.038.124.077.249.122.373.07.234.156.462.258.683.843 2.022 2.332 3.656 4.2 4.608a8.172 8.172 0 005.99.586l15.263-4.311 3.113-.883 39.413-11.14c5.186-1.467 10.015-4.115 14.156-7.764 4.14-3.65 7.495-8.213 9.835-13.379a42.147 42.147 0 003.719-16.551 42.285 42.285 0 00-3.075-16.701z" fill="#CACACA"/><path d="M29.688 364.68a346.403 346.403 0 0029.488 33.743h291.311c2.807.005 5.497 1.201 7.481 3.325 1.984 2.125 3.1 5.004 3.102 8.008l.419 78.999c17.921-8.811 34.704-20.063 49.933-33.474a230.77 230.77 0 0012.291-11.637 229.306 229.306 0 007.605-8.098c18.54-20.668 33.552-44.653 44.357-70.866H29.688z" fill="#3F3D56"/><path d="M431.318 435.546a217.224 217.224 0 01-7.605 8.098h-62.011v-8.098h69.616z" fill="#fff"/><path d="M296.365 176.546a3.714 3.714 0 00-1.312-1.463 3.398 3.398 0 00-1.827-.538H81.921a3.466 3.466 0 00-2.524 1.125 3.972 3.972 0 00-1.047 2.704V313.72h218.453V178.374a3.907 3.907 0 00-.438-1.828z" fill="#3F3D56"/><path d="M78.16 310.055v16.702c0 .693.127 1.378.374 2.018a5.3 5.3 0 001.068 1.71c.458.49 1 .878 1.599 1.143a4.647 4.647 0 001.885.402h80.629v32.961h-1.071a.612.612 0 00-.452.201.672.672 0 00-.139.222.73.73 0 00-.049.262v2.293c0 .09.017.179.049.262a.672.672 0 00.346.371.612.612 0 00.245.052h50.054a.612.612 0 00.453-.201.73.73 0 00.187-.484v-2.293a.73.73 0 00-.187-.484.612.612 0 00-.453-.201h-1.071V332.03h80.629c.647 0 1.288-.137 1.886-.402a4.915 4.915 0 001.598-1.143c.458-.489.82-1.07 1.068-1.71.248-.64.375-1.325.375-2.018v-16.702H78.159z" fill="#3F3D56"/><path d="M185.025 262.119c11.144 0 20.178-9.668 20.178-21.595 0-11.926-9.034-21.594-20.178-21.594-11.145 0-20.179 9.668-20.179 21.594 0 11.927 9.034 21.595 20.179 21.595zM236.436 119.329h-3.223c0-26.073-24.112-43.158-48.437-43.172a49.734 49.734 0 00-10.538 1.097c-3.906.834-7.96 1.834-11.943 3.138-15.707 5.153-30.274 15.113-30.274 38.937a57.841 57.841 0 001.637 13.713l-3.119.869a61.732 61.732 0 01-1.741-14.582c0-20.817 7.986-35.116 21.779-43.641 7.251-4.484 16.101-7.374 26.239-8.78 4.219-.602 8.485-.74 12.73-.415 27.973 2.152 46.89 25.108 46.89 52.836z" fill="#608AF5"/><path d="M241.805 121.24l-1.27-10.043c-.313-2.536-1.454-4.872-3.222-6.594a10.037 10.037 0 00-3.973-2.432 9.553 9.553 0 00-4.567-.327l-2.018.296a4.018 4.018 0 00-1.565.572c-.482.3-.902.698-1.239 1.174a4.635 4.635 0 00-.729 1.59 4.81 4.81 0 00-.102 1.769l2.933 23.134c.12.943.515 1.822 1.128 2.511a4.16 4.16 0 003.074 1.414c.19 0 .379-.014.567-.041l2.256-.324a9.753 9.753 0 003.889-1.453 10.444 10.444 0 003.033-2.983c.174-.262.342-.531.497-.807a12.24 12.24 0 001.308-7.456z" fill="#608AF5"/><path d="M225.453 102.561a4.236 4.236 0 00-1.502 1.325 4.635 4.635 0 00-.729 1.59 4.81 4.81 0 00-.102 1.769l2.933 23.135c.12.942.515 1.821 1.128 2.51a4.167 4.167 0 002.288 1.332l-4.016-31.661z" fill="#fff"/><path d="M241.805 121.24l-1.27-10.043c-.313-2.536-1.454-4.872-3.222-6.594l2.919 23.017c.044.37.133.732.265 1.076a12.238 12.238 0 001.308-7.456zM231.77 128.476c.882-.128 1.325-2.374.99-5.016-.335-2.643-1.321-4.681-2.203-4.553-.882.128-1.325 2.374-.99 5.016.335 2.643 1.321 4.681 2.203 4.553zM229.836 116.06c.882-.128 1.325-2.373.99-5.016-.335-2.642-1.321-4.681-2.203-4.553-.882.128-1.325 2.374-.99 5.017.335 2.642 1.321 4.68 2.203 4.552z" fill="#3F3D56"/><path d="M242.082 120.889c.882-.128 1.326-2.374.991-5.017-.335-2.642-1.322-4.68-2.204-4.552-.881.128-1.325 2.374-.99 5.016.335 2.642 1.322 4.681 2.203 4.553zM184.776 76.157a49.734 49.734 0 00-10.538 1.097c-3.906.834-7.96 1.834-11.943 3.138-6.22-.324-10.796-2.049-11.718-4.704 7.251-4.484 16.101-7.374 26.239-8.78 4.219-.602 8.485-.74 12.73-.415a3.8 3.8 0 011.14 1.117 4.1 4.1 0 01.613 1.518c.303 2.4-2.256 4.953-6.523 7.029z" fill="#3F3D56"/><path d="M143.629 143.264l-4.963-22.079a4.229 4.229 0 00-1.129-2.078 3.79 3.79 0 00-2.016-1.06 3.619 3.619 0 00-1.547.062l-1.921.496c-2.473.64-4.607 2.304-5.935 4.627-1.328 2.322-1.741 5.114-1.148 7.761l2.223 9.906c.508 2.331 1.717 4.42 3.442 5.945a9.162 9.162 0 004.421 2.098 8.933 8.933 0 003.784-.159l1.915-.497a3.65 3.65 0 001.398-.697 4.121 4.121 0 001.353-1.922c.263-.77.306-1.606.123-2.403z" fill="#608AF5"/><path d="M133.225 139.156c.865-.223 1.094-2.505.511-5.098-.583-2.592-1.757-4.513-2.622-4.291-.866.223-1.094 2.506-.511 5.098.583 2.593 1.757 4.514 2.622 4.291zM126.779 141.226c.866-.223 1.095-2.506.512-5.098-.583-2.593-1.757-4.514-2.623-4.291-.865.223-1.094 2.505-.511 5.098.583 2.592 1.757 4.513 2.622 4.291z" fill="#3F3D56"/><path d="M143.945 143.182l-4.963-22.08a4.584 4.584 0 00-1.226-2.247 4.108 4.108 0 00-2.184-1.147l6.775 30.157a4.478 4.478 0 001.462-2.082 4.793 4.793 0 00.136-2.601z" fill="#fff"/><path d="M126.091 126.62a4.611 4.611 0 00-.754-1.69 10.831 10.831 0 00-.367 6.063l2.223 9.905c.508 2.332 1.717 4.421 3.442 5.946l-4.544-20.224z" fill="#3F3D56"/></g><defs><clipPath id="eclip0_103_131"><path fill="#fff" transform="translate(.75)" d="M0 0h548.203v511H0z"/></clipPath></defs></svg></svg>